%TF.GenerationSoftware,KiCad,Pcbnew,(6.0.5-0)*%
%TF.CreationDate,2022-12-25T00:01:24-08:00*%
%TF.ProjectId,PCBRulerSmaller,50434252-756c-4657-9253-6d616c6c6572,1.0*%
%TF.SameCoordinates,PX510ff40PY5d75c80*%
%TF.FileFunction,Legend,Bot*%
%TF.FilePolarity,Positive*%
%FSLAX46Y46*%
G04 Gerber Fmt 4.6, Leading zero omitted, Abs format (unit mm)*
G04 Created by KiCad (PCBNEW (6.0.5-0)) date 2022-12-25 00:01:24*
%MOMM*%
%LPD*%
G01*
G04 APERTURE LIST*
%ADD10C,0.150000*%
%ADD11C,0.381000*%
%ADD12C,0.120000*%
G04 APERTURE END LIST*
D10*
X5500000Y-19500000D02*
X5250000Y-19250000D01*
X5500000Y-19000000D02*
X5500000Y-19500000D01*
X5250000Y-19250000D02*
X5500000Y-19000000D01*
X5750000Y-19250000D02*
X5250000Y-19250000D01*
X60750000Y-20500000D02*
X62250000Y-22000000D01*
G36*
X62250000Y-22000000D02*
G01*
X61500000Y-21750000D01*
X62000000Y-21250000D01*
X62250000Y-22000000D01*
G37*
X62250000Y-22000000D02*
X61500000Y-21750000D01*
X62000000Y-21250000D01*
X62250000Y-22000000D01*
X7302380Y-19647380D02*
X7302380Y-18980714D01*
X7302380Y-19171190D02*
X7264285Y-19075952D01*
X7226190Y-19028333D01*
X7150000Y-18980714D01*
X7073809Y-18980714D01*
X6807142Y-19123571D02*
X6197619Y-19123571D01*
X6197619Y-19409285D02*
X6807142Y-19409285D01*
X8426190Y-20257380D02*
X8350000Y-20257380D01*
X8273809Y-20305000D01*
X8235714Y-20352619D01*
X8197619Y-20447857D01*
X8159523Y-20638333D01*
X8159523Y-20876428D01*
X8197619Y-21066904D01*
X8235714Y-21162142D01*
X8273809Y-21209761D01*
X8350000Y-21257380D01*
X8426190Y-21257380D01*
X8502380Y-21209761D01*
X8540476Y-21162142D01*
X8578571Y-21066904D01*
X8616666Y-20876428D01*
X8616666Y-20638333D01*
X8578571Y-20447857D01*
X8540476Y-20352619D01*
X8502380Y-20305000D01*
X8426190Y-20257380D01*
X7816666Y-21162142D02*
X7778571Y-21209761D01*
X7816666Y-21257380D01*
X7854761Y-21209761D01*
X7816666Y-21162142D01*
X7816666Y-21257380D01*
X7054761Y-20257380D02*
X7435714Y-20257380D01*
X7473809Y-20733571D01*
X7435714Y-20685952D01*
X7359523Y-20638333D01*
X7169047Y-20638333D01*
X7092857Y-20685952D01*
X7054761Y-20733571D01*
X7016666Y-20828809D01*
X7016666Y-21066904D01*
X7054761Y-21162142D01*
X7092857Y-21209761D01*
X7169047Y-21257380D01*
X7359523Y-21257380D01*
X7435714Y-21209761D01*
X7473809Y-21162142D01*
X6673809Y-21257380D02*
X6673809Y-20590714D01*
X6673809Y-20685952D02*
X6635714Y-20638333D01*
X6559523Y-20590714D01*
X6445238Y-20590714D01*
X6369047Y-20638333D01*
X6330952Y-20733571D01*
X6330952Y-21257380D01*
X6330952Y-20733571D02*
X6292857Y-20638333D01*
X6216666Y-20590714D01*
X6102380Y-20590714D01*
X6026190Y-20638333D01*
X5988095Y-20733571D01*
X5988095Y-21257380D01*
X5607142Y-21257380D02*
X5607142Y-20590714D01*
X5607142Y-20685952D02*
X5569047Y-20638333D01*
X5492857Y-20590714D01*
X5378571Y-20590714D01*
X5302380Y-20638333D01*
X5264285Y-20733571D01*
X5264285Y-21257380D01*
X5264285Y-20733571D02*
X5226190Y-20638333D01*
X5150000Y-20590714D01*
X5035714Y-20590714D01*
X4959523Y-20638333D01*
X4921428Y-20733571D01*
X4921428Y-21257380D01*
G36*
X63750000Y-18500000D02*
G01*
X63250000Y-18000000D01*
X64000000Y-17750000D01*
X63750000Y-18500000D01*
G37*
X63750000Y-18500000D02*
X63250000Y-18000000D01*
X64000000Y-17750000D01*
X63750000Y-18500000D01*
X62500000Y-19250000D02*
X64000000Y-17750000D01*
X60000000Y-20952380D02*
X60000000Y-20285714D01*
X60000000Y-20476190D02*
X59952380Y-20380952D01*
X59904761Y-20333333D01*
X59809523Y-20285714D01*
X59714285Y-20285714D01*
X59380952Y-20428571D02*
X58619047Y-20428571D01*
X58619047Y-20714285D02*
X59380952Y-20714285D01*
X58190476Y-20047619D02*
X58142857Y-20000000D01*
X58047619Y-19952380D01*
X57809523Y-19952380D01*
X57714285Y-20000000D01*
X57666666Y-20047619D01*
X57619047Y-20142857D01*
X57619047Y-20238095D01*
X57666666Y-20380952D01*
X58238095Y-20952380D01*
X57619047Y-20952380D01*
X57190476Y-20952380D02*
X57190476Y-20285714D01*
X57190476Y-20380952D02*
X57142857Y-20333333D01*
X57047619Y-20285714D01*
X56904761Y-20285714D01*
X56809523Y-20333333D01*
X56761904Y-20428571D01*
X56761904Y-20952380D01*
X56761904Y-20428571D02*
X56714285Y-20333333D01*
X56619047Y-20285714D01*
X56476190Y-20285714D01*
X56380952Y-20333333D01*
X56333333Y-20428571D01*
X56333333Y-20952380D01*
X55857142Y-20952380D02*
X55857142Y-20285714D01*
X55857142Y-20380952D02*
X55809523Y-20333333D01*
X55714285Y-20285714D01*
X55571428Y-20285714D01*
X55476190Y-20333333D01*
X55428571Y-20428571D01*
X55428571Y-20952380D01*
X55428571Y-20428571D02*
X55380952Y-20333333D01*
X55285714Y-20285714D01*
X55142857Y-20285714D01*
X55047619Y-20333333D01*
X55000000Y-20428571D01*
X55000000Y-20952380D01*
X61750000Y-19452380D02*
X61750000Y-18785714D01*
X61750000Y-18976190D02*
X61702380Y-18880952D01*
X61654761Y-18833333D01*
X61559523Y-18785714D01*
X61464285Y-18785714D01*
X61130952Y-18928571D02*
X60369047Y-18928571D01*
X60369047Y-19214285D02*
X61130952Y-19214285D01*
X59988095Y-18452380D02*
X59369047Y-18452380D01*
X59702380Y-18833333D01*
X59559523Y-18833333D01*
X59464285Y-18880952D01*
X59416666Y-18928571D01*
X59369047Y-19023809D01*
X59369047Y-19261904D01*
X59416666Y-19357142D01*
X59464285Y-19404761D01*
X59559523Y-19452380D01*
X59845238Y-19452380D01*
X59940476Y-19404761D01*
X59988095Y-19357142D01*
X58940476Y-19452380D02*
X58940476Y-18785714D01*
X58940476Y-18880952D02*
X58892857Y-18833333D01*
X58797619Y-18785714D01*
X58654761Y-18785714D01*
X58559523Y-18833333D01*
X58511904Y-18928571D01*
X58511904Y-19452380D01*
X58511904Y-18928571D02*
X58464285Y-18833333D01*
X58369047Y-18785714D01*
X58226190Y-18785714D01*
X58130952Y-18833333D01*
X58083333Y-18928571D01*
X58083333Y-19452380D01*
X57607142Y-19452380D02*
X57607142Y-18785714D01*
X57607142Y-18880952D02*
X57559523Y-18833333D01*
X57464285Y-18785714D01*
X57321428Y-18785714D01*
X57226190Y-18833333D01*
X57178571Y-18928571D01*
X57178571Y-19452380D01*
X57178571Y-18928571D02*
X57130952Y-18833333D01*
X57035714Y-18785714D01*
X56892857Y-18785714D01*
X56797619Y-18833333D01*
X56750000Y-18928571D01*
X56750000Y-19452380D01*
X10202380Y-11357142D02*
X9202380Y-11357142D01*
X9202380Y-11595238D01*
X9250000Y-11738095D01*
X9345238Y-11833333D01*
X9440476Y-11880952D01*
X9630952Y-11928571D01*
X9773809Y-11928571D01*
X9964285Y-11880952D01*
X10059523Y-11833333D01*
X10154761Y-11738095D01*
X10202380Y-11595238D01*
X10202380Y-11357142D01*
X10154761Y-12738095D02*
X10202380Y-12642857D01*
X10202380Y-12452380D01*
X10154761Y-12357142D01*
X10059523Y-12309523D01*
X9678571Y-12309523D01*
X9583333Y-12357142D01*
X9535714Y-12452380D01*
X9535714Y-12642857D01*
X9583333Y-12738095D01*
X9678571Y-12785714D01*
X9773809Y-12785714D01*
X9869047Y-12309523D01*
X9535714Y-13642857D02*
X10345238Y-13642857D01*
X10440476Y-13595238D01*
X10488095Y-13547619D01*
X10535714Y-13452380D01*
X10535714Y-13309523D01*
X10488095Y-13214285D01*
X10154761Y-13642857D02*
X10202380Y-13547619D01*
X10202380Y-13357142D01*
X10154761Y-13261904D01*
X10107142Y-13214285D01*
X10011904Y-13166666D01*
X9726190Y-13166666D01*
X9630952Y-13214285D01*
X9583333Y-13261904D01*
X9535714Y-13357142D01*
X9535714Y-13547619D01*
X9583333Y-13642857D01*
X26000000Y-15875000D02*
X26000000Y-14625000D01*
X34071428Y-3666666D02*
X34071428Y-4428571D01*
X34452380Y-5428571D02*
X34452380Y-4857142D01*
X34452380Y-5142857D02*
X33452380Y-5142857D01*
X33595238Y-5047619D01*
X33690476Y-4952380D01*
X33738095Y-4857142D01*
X33452380Y-6285714D02*
X33452380Y-6095238D01*
X33500000Y-6000000D01*
X33547619Y-5952380D01*
X33690476Y-5857142D01*
X33880952Y-5809523D01*
X34261904Y-5809523D01*
X34357142Y-5857142D01*
X34404761Y-5904761D01*
X34452380Y-6000000D01*
X34452380Y-6190476D01*
X34404761Y-6285714D01*
X34357142Y-6333333D01*
X34261904Y-6380952D01*
X34023809Y-6380952D01*
X33928571Y-6333333D01*
X33880952Y-6285714D01*
X33833333Y-6190476D01*
X33833333Y-6000000D01*
X33880952Y-5904761D01*
X33928571Y-5857142D01*
X34023809Y-5809523D01*
X23130952Y-17845238D02*
X23273809Y-17797619D01*
X23511904Y-17797619D01*
X23607142Y-17845238D01*
X23654761Y-17892857D01*
X23702380Y-17988095D01*
X23702380Y-18083333D01*
X23654761Y-18178571D01*
X23607142Y-18226190D01*
X23511904Y-18273809D01*
X23321428Y-18321428D01*
X23226190Y-18369047D01*
X23178571Y-18416666D01*
X23130952Y-18511904D01*
X23130952Y-18607142D01*
X23178571Y-18702380D01*
X23226190Y-18750000D01*
X23321428Y-18797619D01*
X23559523Y-18797619D01*
X23702380Y-18750000D01*
X24321428Y-18797619D02*
X24511904Y-18797619D01*
X24607142Y-18750000D01*
X24702380Y-18654761D01*
X24750000Y-18464285D01*
X24750000Y-18130952D01*
X24702380Y-17940476D01*
X24607142Y-17845238D01*
X24511904Y-17797619D01*
X24321428Y-17797619D01*
X24226190Y-17845238D01*
X24130952Y-17940476D01*
X24083333Y-18130952D01*
X24083333Y-18464285D01*
X24130952Y-18654761D01*
X24226190Y-18750000D01*
X24321428Y-18797619D01*
X25035714Y-18797619D02*
X25607142Y-18797619D01*
X25321428Y-17797619D02*
X25321428Y-18797619D01*
X25845238Y-18797619D02*
X26464285Y-18797619D01*
X26130952Y-18416666D01*
X26273809Y-18416666D01*
X26369047Y-18369047D01*
X26416666Y-18321428D01*
X26464285Y-18226190D01*
X26464285Y-17988095D01*
X26416666Y-17892857D01*
X26369047Y-17845238D01*
X26273809Y-17797619D01*
X25988095Y-17797619D01*
X25892857Y-17845238D01*
X25845238Y-17892857D01*
X26845238Y-18702380D02*
X26892857Y-18750000D01*
X26988095Y-18797619D01*
X27226190Y-18797619D01*
X27321428Y-18750000D01*
X27369047Y-18702380D01*
X27416666Y-18607142D01*
X27416666Y-18511904D01*
X27369047Y-18369047D01*
X26797619Y-17797619D01*
X27416666Y-17797619D01*
X27750000Y-18797619D02*
X28369047Y-18797619D01*
X28035714Y-18416666D01*
X28178571Y-18416666D01*
X28273809Y-18369047D01*
X28321428Y-18321428D01*
X28369047Y-18226190D01*
X28369047Y-17988095D01*
X28321428Y-17892857D01*
X28273809Y-17845238D01*
X28178571Y-17797619D01*
X27892857Y-17797619D01*
X27797619Y-17845238D01*
X27750000Y-17892857D01*
X5500000Y-3702380D02*
X5500000Y-3035714D01*
X5500000Y-3226190D02*
X5452380Y-3130952D01*
X5404761Y-3083333D01*
X5309523Y-3035714D01*
X5214285Y-3035714D01*
X4880952Y-3178571D02*
X4119047Y-3178571D01*
X4119047Y-3464285D02*
X4880952Y-3464285D01*
X3119047Y-3702380D02*
X3690476Y-3702380D01*
X3404761Y-3702380D02*
X3404761Y-2702380D01*
X3500000Y-2845238D01*
X3595238Y-2940476D01*
X3690476Y-2988095D01*
X2690476Y-3702380D02*
X2690476Y-3035714D01*
X2690476Y-3130952D02*
X2642857Y-3083333D01*
X2547619Y-3035714D01*
X2404761Y-3035714D01*
X2309523Y-3083333D01*
X2261904Y-3178571D01*
X2261904Y-3702380D01*
X2261904Y-3178571D02*
X2214285Y-3083333D01*
X2119047Y-3035714D01*
X1976190Y-3035714D01*
X1880952Y-3083333D01*
X1833333Y-3178571D01*
X1833333Y-3702380D01*
X1357142Y-3702380D02*
X1357142Y-3035714D01*
X1357142Y-3130952D02*
X1309523Y-3083333D01*
X1214285Y-3035714D01*
X1071428Y-3035714D01*
X976190Y-3083333D01*
X928571Y-3178571D01*
X928571Y-3702380D01*
X928571Y-3178571D02*
X880952Y-3083333D01*
X785714Y-3035714D01*
X642857Y-3035714D01*
X547619Y-3083333D01*
X500000Y-3178571D01*
X500000Y-3702380D01*
X22370238Y-16202380D02*
X22275000Y-16202380D01*
X22179761Y-16250000D01*
X22132142Y-16297619D01*
X22084523Y-16392857D01*
X22036904Y-16583333D01*
X22036904Y-16821428D01*
X22084523Y-17011904D01*
X22132142Y-17107142D01*
X22179761Y-17154761D01*
X22275000Y-17202380D01*
X22370238Y-17202380D01*
X22465476Y-17154761D01*
X22513095Y-17107142D01*
X22560714Y-17011904D01*
X22608333Y-16821428D01*
X22608333Y-16583333D01*
X22560714Y-16392857D01*
X22513095Y-16297619D01*
X22465476Y-16250000D01*
X22370238Y-16202380D01*
X21608333Y-17107142D02*
X21560714Y-17154761D01*
X21608333Y-17202380D01*
X21655952Y-17154761D01*
X21608333Y-17107142D01*
X21608333Y-17202380D01*
X20655952Y-16202380D02*
X21132142Y-16202380D01*
X21179761Y-16678571D01*
X21132142Y-16630952D01*
X21036904Y-16583333D01*
X20798809Y-16583333D01*
X20703571Y-16630952D01*
X20655952Y-16678571D01*
X20608333Y-16773809D01*
X20608333Y-17011904D01*
X20655952Y-17107142D01*
X20703571Y-17154761D01*
X20798809Y-17202380D01*
X21036904Y-17202380D01*
X21132142Y-17154761D01*
X21179761Y-17107142D01*
X20179761Y-17202380D02*
X20179761Y-16535714D01*
X20179761Y-16630952D02*
X20132142Y-16583333D01*
X20036904Y-16535714D01*
X19894047Y-16535714D01*
X19798809Y-16583333D01*
X19751190Y-16678571D01*
X19751190Y-17202380D01*
X19751190Y-16678571D02*
X19703571Y-16583333D01*
X19608333Y-16535714D01*
X19465476Y-16535714D01*
X19370238Y-16583333D01*
X19322619Y-16678571D01*
X19322619Y-17202380D01*
X18846428Y-17202380D02*
X18846428Y-16535714D01*
X18846428Y-16630952D02*
X18798809Y-16583333D01*
X18703571Y-16535714D01*
X18560714Y-16535714D01*
X18465476Y-16583333D01*
X18417857Y-16678571D01*
X18417857Y-17202380D01*
X18417857Y-16678571D02*
X18370238Y-16583333D01*
X18275000Y-16535714D01*
X18132142Y-16535714D01*
X18036904Y-16583333D01*
X17989285Y-16678571D01*
X17989285Y-17202380D01*
%TO.C,REF\u002A\u002A*%
X8702380Y-11858333D02*
X8702380Y-12048809D01*
X8654761Y-12144047D01*
X8607142Y-12191666D01*
X8464285Y-12286904D01*
X8273809Y-12334523D01*
X7892857Y-12334523D01*
X7797619Y-12286904D01*
X7750000Y-12239285D01*
X7702380Y-12144047D01*
X7702380Y-11953571D01*
X7750000Y-11858333D01*
X7797619Y-11810714D01*
X7892857Y-11763095D01*
X8130952Y-11763095D01*
X8226190Y-11810714D01*
X8273809Y-11858333D01*
X8321428Y-11953571D01*
X8321428Y-12144047D01*
X8273809Y-12239285D01*
X8226190Y-12286904D01*
X8130952Y-12334523D01*
X7702380Y-12953571D02*
X7702380Y-13048809D01*
X7750000Y-13144047D01*
X7797619Y-13191666D01*
X7892857Y-13239285D01*
X8083333Y-13286904D01*
X8321428Y-13286904D01*
X8511904Y-13239285D01*
X8607142Y-13191666D01*
X8654761Y-13144047D01*
X8702380Y-13048809D01*
X8702380Y-12953571D01*
X8654761Y-12858333D01*
X8607142Y-12810714D01*
X8511904Y-12763095D01*
X8321428Y-12715476D01*
X8083333Y-12715476D01*
X7892857Y-12763095D01*
X7797619Y-12810714D01*
X7750000Y-12858333D01*
X7702380Y-12953571D01*
X4427258Y-18645986D02*
X3891147Y-18955509D01*
X4370299Y-19118757D01*
X4246581Y-19190186D01*
X4187912Y-19279044D01*
X4170482Y-19344093D01*
X4176861Y-19450381D01*
X4295909Y-19656578D01*
X4384767Y-19715247D01*
X4449816Y-19732676D01*
X4556104Y-19726297D01*
X4803540Y-19583440D01*
X4862209Y-19494581D01*
X4879639Y-19429532D01*
X3355036Y-19265033D02*
X3272558Y-19312652D01*
X3213889Y-19401511D01*
X3196459Y-19466559D01*
X3202838Y-19572848D01*
X3256837Y-19761614D01*
X3375885Y-19967811D01*
X3512362Y-20108959D01*
X3601221Y-20167628D01*
X3666269Y-20185057D01*
X3772558Y-20178678D01*
X3855036Y-20131059D01*
X3913705Y-20042200D01*
X3931135Y-19977151D01*
X3924755Y-19870863D01*
X3870757Y-19682097D01*
X3751709Y-19475900D01*
X3615232Y-19334752D01*
X3526373Y-19276083D01*
X3461324Y-19258653D01*
X3355036Y-19265033D01*
X6668605Y-16003754D02*
X6763843Y-15838797D01*
X6852701Y-15780128D01*
X6917750Y-15762698D01*
X7089087Y-15751648D01*
X7277854Y-15805647D01*
X7607768Y-15996123D01*
X7666437Y-16084981D01*
X7683867Y-16150030D01*
X7677487Y-16256318D01*
X7582249Y-16421276D01*
X7493391Y-16479945D01*
X7428342Y-16497374D01*
X7322054Y-16490995D01*
X7115857Y-16371947D01*
X7057188Y-16283089D01*
X7039758Y-16218040D01*
X7046138Y-16111752D01*
X7141376Y-15946795D01*
X7230235Y-15888125D01*
X7295283Y-15870696D01*
X7401572Y-15877075D01*
X6311462Y-16622344D02*
X6263843Y-16704822D01*
X6257463Y-16811110D01*
X6274893Y-16876159D01*
X6333562Y-16965018D01*
X6474710Y-17101495D01*
X6680906Y-17220543D01*
X6869673Y-17274541D01*
X6975961Y-17280921D01*
X7041010Y-17263491D01*
X7129868Y-17204822D01*
X7177487Y-17122344D01*
X7183867Y-17016056D01*
X7166437Y-16951007D01*
X7107768Y-16862148D01*
X6966620Y-16725671D01*
X6760424Y-16606623D01*
X6571657Y-16552625D01*
X6465369Y-16546245D01*
X6400320Y-16563675D01*
X6311462Y-16622344D01*
X3648840Y-4549893D02*
X3153968Y-4264178D01*
X3401404Y-4407036D02*
X2901404Y-5273061D01*
X2890354Y-5101724D01*
X2855494Y-4971626D01*
X2796825Y-4882768D01*
X3932387Y-5868299D02*
X3519993Y-5630204D01*
X3716849Y-5194001D01*
X3734279Y-5259050D01*
X3792948Y-5347908D01*
X3999145Y-5466956D01*
X4105433Y-5473336D01*
X4170482Y-5455906D01*
X4259340Y-5397237D01*
X4378388Y-5191040D01*
X4384767Y-5084752D01*
X4367338Y-5019704D01*
X4308669Y-4930845D01*
X4102472Y-4811798D01*
X3996184Y-4805418D01*
X3931135Y-4822848D01*
X4509737Y-6201632D02*
X4592215Y-6249252D01*
X4698504Y-6255631D01*
X4763552Y-6238201D01*
X4852411Y-6179532D01*
X4988888Y-6038385D01*
X5107936Y-5832188D01*
X5161935Y-5643421D01*
X5168314Y-5537133D01*
X5150884Y-5472084D01*
X5092215Y-5383226D01*
X5009737Y-5335607D01*
X4903449Y-5329227D01*
X4838400Y-5346657D01*
X4749541Y-5405326D01*
X4613064Y-5546474D01*
X4494016Y-5752670D01*
X4440018Y-5941437D01*
X4433638Y-6047725D01*
X4451068Y-6112774D01*
X4509737Y-6201632D01*
X7058440Y-7446459D02*
X6772725Y-6951587D01*
X6915582Y-7199023D02*
X6049557Y-7699023D01*
X6125656Y-7545116D01*
X6160515Y-7415018D01*
X6154136Y-7308730D01*
X6465369Y-8228754D02*
X6447939Y-8293803D01*
X6454319Y-8400091D01*
X6573367Y-8606288D01*
X6662225Y-8664957D01*
X6727274Y-8682387D01*
X6833562Y-8676007D01*
X6916040Y-8628388D01*
X7015949Y-8515720D01*
X7225106Y-7735134D01*
X7534630Y-8271245D01*
X6978128Y-9307356D02*
X7025747Y-9389834D01*
X7114606Y-9448504D01*
X7179655Y-9465933D01*
X7285943Y-9459554D01*
X7474710Y-9405555D01*
X7680906Y-9286507D01*
X7822054Y-9150030D01*
X7880723Y-9061171D01*
X7898153Y-8996123D01*
X7891773Y-8889834D01*
X7844154Y-8807356D01*
X7755295Y-8748687D01*
X7690247Y-8731257D01*
X7583959Y-8737637D01*
X7395192Y-8791635D01*
X7188995Y-8910683D01*
X7047848Y-9047161D01*
X6989178Y-9136019D01*
X6971749Y-9201068D01*
X6978128Y-9307356D01*
X48162023Y-17666666D02*
X47685833Y-17666666D01*
X48257261Y-17952380D02*
X47923928Y-16952380D01*
X47590595Y-17952380D01*
X47257261Y-17952380D02*
X47257261Y-17285714D01*
X47257261Y-17476190D02*
X47209642Y-17380952D01*
X47162023Y-17333333D01*
X47066785Y-17285714D01*
X46971547Y-17285714D01*
X46257261Y-17904761D02*
X46352500Y-17952380D01*
X46542976Y-17952380D01*
X46638214Y-17904761D01*
X46685833Y-17809523D01*
X46685833Y-17428571D01*
X46638214Y-17333333D01*
X46542976Y-17285714D01*
X46352500Y-17285714D01*
X46257261Y-17333333D01*
X46209642Y-17428571D01*
X46209642Y-17523809D01*
X46685833Y-17619047D01*
X45352500Y-17952380D02*
X45352500Y-17428571D01*
X45400119Y-17333333D01*
X45495357Y-17285714D01*
X45685833Y-17285714D01*
X45781071Y-17333333D01*
X45352500Y-17904761D02*
X45447738Y-17952380D01*
X45685833Y-17952380D01*
X45781071Y-17904761D01*
X45828690Y-17809523D01*
X45828690Y-17714285D01*
X45781071Y-17619047D01*
X45685833Y-17571428D01*
X45447738Y-17571428D01*
X45352500Y-17523809D01*
X43828690Y-18333333D02*
X43876309Y-18285714D01*
X43971547Y-18142857D01*
X44019166Y-18047619D01*
X44066785Y-17904761D01*
X44114404Y-17666666D01*
X44114404Y-17476190D01*
X44066785Y-17238095D01*
X44019166Y-17095238D01*
X43971547Y-17000000D01*
X43876309Y-16857142D01*
X43828690Y-16809523D01*
X43447738Y-17952380D02*
X43447738Y-17285714D01*
X43447738Y-17380952D02*
X43400119Y-17333333D01*
X43304880Y-17285714D01*
X43162023Y-17285714D01*
X43066785Y-17333333D01*
X43019166Y-17428571D01*
X43019166Y-17952380D01*
X43019166Y-17428571D02*
X42971547Y-17333333D01*
X42876309Y-17285714D01*
X42733452Y-17285714D01*
X42638214Y-17333333D01*
X42590595Y-17428571D01*
X42590595Y-17952380D01*
X42114404Y-17952380D02*
X42114404Y-17285714D01*
X42114404Y-17380952D02*
X42066785Y-17333333D01*
X41971547Y-17285714D01*
X41828690Y-17285714D01*
X41733452Y-17333333D01*
X41685833Y-17428571D01*
X41685833Y-17952380D01*
X41685833Y-17428571D02*
X41638214Y-17333333D01*
X41542976Y-17285714D01*
X41400119Y-17285714D01*
X41304880Y-17333333D01*
X41257261Y-17428571D01*
X41257261Y-17952380D01*
X40114404Y-18333333D02*
X40066785Y-18285714D01*
X39971547Y-18142857D01*
X39923928Y-18047619D01*
X39876309Y-17904761D01*
X39828690Y-17666666D01*
X39828690Y-17476190D01*
X39876309Y-17238095D01*
X39923928Y-17095238D01*
X39971547Y-17000000D01*
X40066785Y-16857142D01*
X40114404Y-16809523D01*
X48162023Y-6666666D02*
X47685833Y-6666666D01*
X48257261Y-6952380D02*
X47923928Y-5952380D01*
X47590595Y-6952380D01*
X47352500Y-5952380D02*
X47114404Y-6952380D01*
X46923928Y-6238095D01*
X46733452Y-6952380D01*
X46495357Y-5952380D01*
X45590595Y-6000000D02*
X45685833Y-5952380D01*
X45828690Y-5952380D01*
X45971547Y-6000000D01*
X46066785Y-6095238D01*
X46114404Y-6190476D01*
X46162023Y-6380952D01*
X46162023Y-6523809D01*
X46114404Y-6714285D01*
X46066785Y-6809523D01*
X45971547Y-6904761D01*
X45828690Y-6952380D01*
X45733452Y-6952380D01*
X45590595Y-6904761D01*
X45542976Y-6857142D01*
X45542976Y-6523809D01*
X45733452Y-6523809D01*
X44066785Y-7333333D02*
X44114404Y-7285714D01*
X44209642Y-7142857D01*
X44257261Y-7047619D01*
X44304880Y-6904761D01*
X44352500Y-6666666D01*
X44352500Y-6476190D01*
X44304880Y-6238095D01*
X44257261Y-6095238D01*
X44209642Y-6000000D01*
X44114404Y-5857142D01*
X44066785Y-5809523D01*
X43257261Y-6952380D02*
X43257261Y-6428571D01*
X43304880Y-6333333D01*
X43400119Y-6285714D01*
X43590595Y-6285714D01*
X43685833Y-6333333D01*
X43257261Y-6904761D02*
X43352500Y-6952380D01*
X43590595Y-6952380D01*
X43685833Y-6904761D01*
X43733452Y-6809523D01*
X43733452Y-6714285D01*
X43685833Y-6619047D01*
X43590595Y-6571428D01*
X43352500Y-6571428D01*
X43257261Y-6523809D01*
X42781071Y-6285714D02*
X42781071Y-7285714D01*
X42781071Y-6333333D02*
X42685833Y-6285714D01*
X42495357Y-6285714D01*
X42400119Y-6333333D01*
X42352500Y-6380952D01*
X42304880Y-6476190D01*
X42304880Y-6761904D01*
X42352500Y-6857142D01*
X42400119Y-6904761D01*
X42495357Y-6952380D01*
X42685833Y-6952380D01*
X42781071Y-6904761D01*
X41876309Y-6285714D02*
X41876309Y-7285714D01*
X41876309Y-6333333D02*
X41781071Y-6285714D01*
X41590595Y-6285714D01*
X41495357Y-6333333D01*
X41447738Y-6380952D01*
X41400119Y-6476190D01*
X41400119Y-6761904D01*
X41447738Y-6857142D01*
X41495357Y-6904761D01*
X41590595Y-6952380D01*
X41781071Y-6952380D01*
X41876309Y-6904761D01*
X40971547Y-6952380D02*
X40971547Y-6285714D01*
X40971547Y-6476190D02*
X40923928Y-6380952D01*
X40876309Y-6333333D01*
X40781071Y-6285714D01*
X40685833Y-6285714D01*
X40209642Y-6952380D02*
X40304880Y-6904761D01*
X40352500Y-6857142D01*
X40400119Y-6761904D01*
X40400119Y-6476190D01*
X40352500Y-6380952D01*
X40304880Y-6333333D01*
X40209642Y-6285714D01*
X40066785Y-6285714D01*
X39971547Y-6333333D01*
X39923928Y-6380952D01*
X39876309Y-6476190D01*
X39876309Y-6761904D01*
X39923928Y-6857142D01*
X39971547Y-6904761D01*
X40066785Y-6952380D01*
X40209642Y-6952380D01*
X39542976Y-6952380D02*
X39019166Y-6285714D01*
X39542976Y-6285714D02*
X39019166Y-6952380D01*
X38638214Y-6857142D02*
X38590595Y-6904761D01*
X38638214Y-6952380D01*
X38685833Y-6904761D01*
X38638214Y-6857142D01*
X38638214Y-6952380D01*
X38257261Y-7333333D02*
X38209642Y-7285714D01*
X38114404Y-7142857D01*
X38066785Y-7047619D01*
X38019166Y-6904761D01*
X37971547Y-6666666D01*
X37971547Y-6476190D01*
X38019166Y-6238095D01*
X38066785Y-6095238D01*
X38114404Y-6000000D01*
X38209642Y-5857142D01*
X38257261Y-5809523D01*
X40719166Y-16933333D02*
X40685833Y-16900000D01*
X40619166Y-16866666D01*
X40452500Y-16866666D01*
X40385833Y-16900000D01*
X40352500Y-16933333D01*
X40319166Y-17000000D01*
X40319166Y-17066666D01*
X40352500Y-17166666D01*
X40752500Y-17566666D01*
X40319166Y-17566666D01*
X51173809Y-17952380D02*
X51630952Y-17952380D01*
X51402380Y-17952380D02*
X51402380Y-16952380D01*
X51478571Y-17095238D01*
X51554761Y-17190476D01*
X51630952Y-17238095D01*
X50830952Y-17857142D02*
X50792857Y-17904761D01*
X50830952Y-17952380D01*
X50869047Y-17904761D01*
X50830952Y-17857142D01*
X50830952Y-17952380D01*
X50526190Y-16952380D02*
X50030952Y-16952380D01*
X50297619Y-17333333D01*
X50183333Y-17333333D01*
X50107142Y-17380952D01*
X50069047Y-17428571D01*
X50030952Y-17523809D01*
X50030952Y-17761904D01*
X50069047Y-17857142D01*
X50107142Y-17904761D01*
X50183333Y-17952380D01*
X50411904Y-17952380D01*
X50488095Y-17904761D01*
X50526190Y-17857142D01*
X49269047Y-17952380D02*
X49726190Y-17952380D01*
X49497619Y-17952380D02*
X49497619Y-16952380D01*
X49573809Y-17095238D01*
X49650000Y-17190476D01*
X49726190Y-17238095D01*
X62640476Y-6952380D02*
X63211904Y-6952380D01*
X62926190Y-6952380D02*
X62926190Y-5952380D01*
X63021428Y-6095238D01*
X63116666Y-6190476D01*
X63211904Y-6238095D01*
X62307142Y-5952380D02*
X61640476Y-5952380D01*
X62069047Y-6952380D01*
X48162023Y-8666666D02*
X47685833Y-8666666D01*
X48257261Y-8952380D02*
X47923928Y-7952380D01*
X47590595Y-8952380D01*
X47257261Y-8952380D02*
X47257261Y-8285714D01*
X47257261Y-8476190D02*
X47209642Y-8380952D01*
X47162023Y-8333333D01*
X47066785Y-8285714D01*
X46971547Y-8285714D01*
X46257261Y-8904761D02*
X46352500Y-8952380D01*
X46542976Y-8952380D01*
X46638214Y-8904761D01*
X46685833Y-8809523D01*
X46685833Y-8428571D01*
X46638214Y-8333333D01*
X46542976Y-8285714D01*
X46352500Y-8285714D01*
X46257261Y-8333333D01*
X46209642Y-8428571D01*
X46209642Y-8523809D01*
X46685833Y-8619047D01*
X45352500Y-8952380D02*
X45352500Y-8428571D01*
X45400119Y-8333333D01*
X45495357Y-8285714D01*
X45685833Y-8285714D01*
X45781071Y-8333333D01*
X45352500Y-8904761D02*
X45447738Y-8952380D01*
X45685833Y-8952380D01*
X45781071Y-8904761D01*
X45828690Y-8809523D01*
X45828690Y-8714285D01*
X45781071Y-8619047D01*
X45685833Y-8571428D01*
X45447738Y-8571428D01*
X45352500Y-8523809D01*
X43828690Y-9333333D02*
X43876309Y-9285714D01*
X43971547Y-9142857D01*
X44019166Y-9047619D01*
X44066785Y-8904761D01*
X44114404Y-8666666D01*
X44114404Y-8476190D01*
X44066785Y-8238095D01*
X44019166Y-8095238D01*
X43971547Y-8000000D01*
X43876309Y-7857142D01*
X43828690Y-7809523D01*
X43447738Y-8952380D02*
X43447738Y-8285714D01*
X43447738Y-8380952D02*
X43400119Y-8333333D01*
X43304880Y-8285714D01*
X43162023Y-8285714D01*
X43066785Y-8333333D01*
X43019166Y-8428571D01*
X43019166Y-8952380D01*
X43019166Y-8428571D02*
X42971547Y-8333333D01*
X42876309Y-8285714D01*
X42733452Y-8285714D01*
X42638214Y-8333333D01*
X42590595Y-8428571D01*
X42590595Y-8952380D01*
X42114404Y-8952380D02*
X42114404Y-8285714D01*
X42114404Y-8380952D02*
X42066785Y-8333333D01*
X41971547Y-8285714D01*
X41828690Y-8285714D01*
X41733452Y-8333333D01*
X41685833Y-8428571D01*
X41685833Y-8952380D01*
X41685833Y-8428571D02*
X41638214Y-8333333D01*
X41542976Y-8285714D01*
X41400119Y-8285714D01*
X41304880Y-8333333D01*
X41257261Y-8428571D01*
X41257261Y-8952380D01*
X40114404Y-9333333D02*
X40066785Y-9285714D01*
X39971547Y-9142857D01*
X39923928Y-9047619D01*
X39876309Y-8904761D01*
X39828690Y-8666666D01*
X39828690Y-8476190D01*
X39876309Y-8238095D01*
X39923928Y-8095238D01*
X39971547Y-8000000D01*
X40066785Y-7857142D01*
X40114404Y-7809523D01*
X57211904Y-6047619D02*
X57164285Y-6000000D01*
X57069047Y-5952380D01*
X56830952Y-5952380D01*
X56735714Y-6000000D01*
X56688095Y-6047619D01*
X56640476Y-6142857D01*
X56640476Y-6238095D01*
X56688095Y-6380952D01*
X57259523Y-6952380D01*
X56640476Y-6952380D01*
X56259523Y-6047619D02*
X56211904Y-6000000D01*
X56116666Y-5952380D01*
X55878571Y-5952380D01*
X55783333Y-6000000D01*
X55735714Y-6047619D01*
X55688095Y-6142857D01*
X55688095Y-6238095D01*
X55735714Y-6380952D01*
X56307142Y-6952380D01*
X55688095Y-6952380D01*
X53640476Y-15952380D02*
X54211904Y-15952380D01*
X53926190Y-15952380D02*
X53926190Y-14952380D01*
X54021428Y-15095238D01*
X54116666Y-15190476D01*
X54211904Y-15238095D01*
X52783333Y-15285714D02*
X52783333Y-15952380D01*
X53021428Y-14904761D02*
X53259523Y-15619047D01*
X52640476Y-15619047D01*
X40719166Y-7933333D02*
X40685833Y-7900000D01*
X40619166Y-7866666D01*
X40452500Y-7866666D01*
X40385833Y-7900000D01*
X40352500Y-7933333D01*
X40319166Y-8000000D01*
X40319166Y-8066666D01*
X40352500Y-8166666D01*
X40752500Y-8566666D01*
X40319166Y-8566666D01*
X51440476Y-7952380D02*
X51364285Y-7952380D01*
X51288095Y-8000000D01*
X51250000Y-8047619D01*
X51211904Y-8142857D01*
X51173809Y-8333333D01*
X51173809Y-8571428D01*
X51211904Y-8761904D01*
X51250000Y-8857142D01*
X51288095Y-8904761D01*
X51364285Y-8952380D01*
X51440476Y-8952380D01*
X51516666Y-8904761D01*
X51554761Y-8857142D01*
X51592857Y-8761904D01*
X51630952Y-8571428D01*
X51630952Y-8333333D01*
X51592857Y-8142857D01*
X51554761Y-8047619D01*
X51516666Y-8000000D01*
X51440476Y-7952380D01*
X50830952Y-8857142D02*
X50792857Y-8904761D01*
X50830952Y-8952380D01*
X50869047Y-8904761D01*
X50830952Y-8857142D01*
X50830952Y-8952380D01*
X50297619Y-7952380D02*
X50221428Y-7952380D01*
X50145238Y-8000000D01*
X50107142Y-8047619D01*
X50069047Y-8142857D01*
X50030952Y-8333333D01*
X50030952Y-8571428D01*
X50069047Y-8761904D01*
X50107142Y-8857142D01*
X50145238Y-8904761D01*
X50221428Y-8952380D01*
X50297619Y-8952380D01*
X50373809Y-8904761D01*
X50411904Y-8857142D01*
X50450000Y-8761904D01*
X50488095Y-8571428D01*
X50488095Y-8333333D01*
X50450000Y-8142857D01*
X50411904Y-8047619D01*
X50373809Y-8000000D01*
X50297619Y-7952380D01*
X49573809Y-8380952D02*
X49650000Y-8333333D01*
X49688095Y-8285714D01*
X49726190Y-8190476D01*
X49726190Y-8142857D01*
X49688095Y-8047619D01*
X49650000Y-8000000D01*
X49573809Y-7952380D01*
X49421428Y-7952380D01*
X49345238Y-8000000D01*
X49307142Y-8047619D01*
X49269047Y-8142857D01*
X49269047Y-8190476D01*
X49307142Y-8285714D01*
X49345238Y-8333333D01*
X49421428Y-8380952D01*
X49573809Y-8380952D01*
X49650000Y-8428571D01*
X49688095Y-8476190D01*
X49726190Y-8571428D01*
X49726190Y-8761904D01*
X49688095Y-8857142D01*
X49650000Y-8904761D01*
X49573809Y-8952380D01*
X49421428Y-8952380D01*
X49345238Y-8904761D01*
X49307142Y-8857142D01*
X49269047Y-8761904D01*
X49269047Y-8571428D01*
X49307142Y-8476190D01*
X49345238Y-8428571D01*
X49421428Y-8380952D01*
X50640476Y-15952380D02*
X51211904Y-15952380D01*
X50926190Y-15952380D02*
X50926190Y-14952380D01*
X51021428Y-15095238D01*
X51116666Y-15190476D01*
X51211904Y-15238095D01*
X49783333Y-14952380D02*
X49973809Y-14952380D01*
X50069047Y-15000000D01*
X50116666Y-15047619D01*
X50211904Y-15190476D01*
X50259523Y-15380952D01*
X50259523Y-15761904D01*
X50211904Y-15857142D01*
X50164285Y-15904761D01*
X50069047Y-15952380D01*
X49878571Y-15952380D01*
X49783333Y-15904761D01*
X49735714Y-15857142D01*
X49688095Y-15761904D01*
X49688095Y-15523809D01*
X49735714Y-15428571D01*
X49783333Y-15380952D01*
X49878571Y-15333333D01*
X50069047Y-15333333D01*
X50164285Y-15380952D01*
X50211904Y-15428571D01*
X50259523Y-15523809D01*
X48569047Y-15666666D02*
X48092857Y-15666666D01*
X48664285Y-15952380D02*
X48330952Y-14952380D01*
X47997619Y-15952380D01*
X47759523Y-14952380D02*
X47521428Y-15952380D01*
X47330952Y-15238095D01*
X47140476Y-15952380D01*
X46902380Y-14952380D01*
X45997619Y-15000000D02*
X46092857Y-14952380D01*
X46235714Y-14952380D01*
X46378571Y-15000000D01*
X46473809Y-15095238D01*
X46521428Y-15190476D01*
X46569047Y-15380952D01*
X46569047Y-15523809D01*
X46521428Y-15714285D01*
X46473809Y-15809523D01*
X46378571Y-15904761D01*
X46235714Y-15952380D01*
X46140476Y-15952380D01*
X45997619Y-15904761D01*
X45950000Y-15857142D01*
X45950000Y-15523809D01*
X46140476Y-15523809D01*
X44473809Y-16333333D02*
X44521428Y-16285714D01*
X44616666Y-16142857D01*
X44664285Y-16047619D01*
X44711904Y-15904761D01*
X44759523Y-15666666D01*
X44759523Y-15476190D01*
X44711904Y-15238095D01*
X44664285Y-15095238D01*
X44616666Y-15000000D01*
X44521428Y-14857142D01*
X44473809Y-14809523D01*
X43664285Y-15952380D02*
X43664285Y-15428571D01*
X43711904Y-15333333D01*
X43807142Y-15285714D01*
X43997619Y-15285714D01*
X44092857Y-15333333D01*
X43664285Y-15904761D02*
X43759523Y-15952380D01*
X43997619Y-15952380D01*
X44092857Y-15904761D01*
X44140476Y-15809523D01*
X44140476Y-15714285D01*
X44092857Y-15619047D01*
X43997619Y-15571428D01*
X43759523Y-15571428D01*
X43664285Y-15523809D01*
X43188095Y-15285714D02*
X43188095Y-16285714D01*
X43188095Y-15333333D02*
X43092857Y-15285714D01*
X42902380Y-15285714D01*
X42807142Y-15333333D01*
X42759523Y-15380952D01*
X42711904Y-15476190D01*
X42711904Y-15761904D01*
X42759523Y-15857142D01*
X42807142Y-15904761D01*
X42902380Y-15952380D01*
X43092857Y-15952380D01*
X43188095Y-15904761D01*
X42283333Y-15285714D02*
X42283333Y-16285714D01*
X42283333Y-15333333D02*
X42188095Y-15285714D01*
X41997619Y-15285714D01*
X41902380Y-15333333D01*
X41854761Y-15380952D01*
X41807142Y-15476190D01*
X41807142Y-15761904D01*
X41854761Y-15857142D01*
X41902380Y-15904761D01*
X41997619Y-15952380D01*
X42188095Y-15952380D01*
X42283333Y-15904761D01*
X41378571Y-15952380D02*
X41378571Y-15285714D01*
X41378571Y-15476190D02*
X41330952Y-15380952D01*
X41283333Y-15333333D01*
X41188095Y-15285714D01*
X41092857Y-15285714D01*
X40616666Y-15952380D02*
X40711904Y-15904761D01*
X40759523Y-15857142D01*
X40807142Y-15761904D01*
X40807142Y-15476190D01*
X40759523Y-15380952D01*
X40711904Y-15333333D01*
X40616666Y-15285714D01*
X40473809Y-15285714D01*
X40378571Y-15333333D01*
X40330952Y-15380952D01*
X40283333Y-15476190D01*
X40283333Y-15761904D01*
X40330952Y-15857142D01*
X40378571Y-15904761D01*
X40473809Y-15952380D01*
X40616666Y-15952380D01*
X39950000Y-15952380D02*
X39426190Y-15285714D01*
X39950000Y-15285714D02*
X39426190Y-15952380D01*
X39045238Y-15857142D02*
X38997619Y-15904761D01*
X39045238Y-15952380D01*
X39092857Y-15904761D01*
X39045238Y-15857142D01*
X39045238Y-15952380D01*
X38664285Y-16333333D02*
X38616666Y-16285714D01*
X38521428Y-16142857D01*
X38473809Y-16047619D01*
X38426190Y-15904761D01*
X38378571Y-15666666D01*
X38378571Y-15476190D01*
X38426190Y-15238095D01*
X38473809Y-15095238D01*
X38521428Y-15000000D01*
X38616666Y-14857142D01*
X38664285Y-14809523D01*
X60440476Y-7952380D02*
X60364285Y-7952380D01*
X60288095Y-8000000D01*
X60250000Y-8047619D01*
X60211904Y-8142857D01*
X60173809Y-8333333D01*
X60173809Y-8571428D01*
X60211904Y-8761904D01*
X60250000Y-8857142D01*
X60288095Y-8904761D01*
X60364285Y-8952380D01*
X60440476Y-8952380D01*
X60516666Y-8904761D01*
X60554761Y-8857142D01*
X60592857Y-8761904D01*
X60630952Y-8571428D01*
X60630952Y-8333333D01*
X60592857Y-8142857D01*
X60554761Y-8047619D01*
X60516666Y-8000000D01*
X60440476Y-7952380D01*
X59830952Y-8857142D02*
X59792857Y-8904761D01*
X59830952Y-8952380D01*
X59869047Y-8904761D01*
X59830952Y-8857142D01*
X59830952Y-8952380D01*
X59107142Y-7952380D02*
X59259523Y-7952380D01*
X59335714Y-8000000D01*
X59373809Y-8047619D01*
X59450000Y-8190476D01*
X59488095Y-8380952D01*
X59488095Y-8761904D01*
X59450000Y-8857142D01*
X59411904Y-8904761D01*
X59335714Y-8952380D01*
X59183333Y-8952380D01*
X59107142Y-8904761D01*
X59069047Y-8857142D01*
X59030952Y-8761904D01*
X59030952Y-8523809D01*
X59069047Y-8428571D01*
X59107142Y-8380952D01*
X59183333Y-8333333D01*
X59335714Y-8333333D01*
X59411904Y-8380952D01*
X59450000Y-8428571D01*
X59488095Y-8523809D01*
X58307142Y-7952380D02*
X58688095Y-7952380D01*
X58726190Y-8428571D01*
X58688095Y-8380952D01*
X58611904Y-8333333D01*
X58421428Y-8333333D01*
X58345238Y-8380952D01*
X58307142Y-8428571D01*
X58269047Y-8523809D01*
X58269047Y-8761904D01*
X58307142Y-8857142D01*
X58345238Y-8904761D01*
X58421428Y-8952380D01*
X58611904Y-8952380D01*
X58688095Y-8904761D01*
X58726190Y-8857142D01*
X61545238Y-15380952D02*
X61640476Y-15333333D01*
X61688095Y-15285714D01*
X61735714Y-15190476D01*
X61735714Y-15142857D01*
X61688095Y-15047619D01*
X61640476Y-15000000D01*
X61545238Y-14952380D01*
X61354761Y-14952380D01*
X61259523Y-15000000D01*
X61211904Y-15047619D01*
X61164285Y-15142857D01*
X61164285Y-15190476D01*
X61211904Y-15285714D01*
X61259523Y-15333333D01*
X61354761Y-15380952D01*
X61545238Y-15380952D01*
X61640476Y-15428571D01*
X61688095Y-15476190D01*
X61735714Y-15571428D01*
X61735714Y-15761904D01*
X61688095Y-15857142D01*
X61640476Y-15904761D01*
X61545238Y-15952380D01*
X61354761Y-15952380D01*
X61259523Y-15904761D01*
X61211904Y-15857142D01*
X61164285Y-15761904D01*
X61164285Y-15571428D01*
X61211904Y-15476190D01*
X61259523Y-15428571D01*
X61354761Y-15380952D01*
X57440476Y-7952380D02*
X57364285Y-7952380D01*
X57288095Y-8000000D01*
X57250000Y-8047619D01*
X57211904Y-8142857D01*
X57173809Y-8333333D01*
X57173809Y-8571428D01*
X57211904Y-8761904D01*
X57250000Y-8857142D01*
X57288095Y-8904761D01*
X57364285Y-8952380D01*
X57440476Y-8952380D01*
X57516666Y-8904761D01*
X57554761Y-8857142D01*
X57592857Y-8761904D01*
X57630952Y-8571428D01*
X57630952Y-8333333D01*
X57592857Y-8142857D01*
X57554761Y-8047619D01*
X57516666Y-8000000D01*
X57440476Y-7952380D01*
X56830952Y-8857142D02*
X56792857Y-8904761D01*
X56830952Y-8952380D01*
X56869047Y-8904761D01*
X56830952Y-8857142D01*
X56830952Y-8952380D01*
X56526190Y-7952380D02*
X56030952Y-7952380D01*
X56297619Y-8333333D01*
X56183333Y-8333333D01*
X56107142Y-8380952D01*
X56069047Y-8428571D01*
X56030952Y-8523809D01*
X56030952Y-8761904D01*
X56069047Y-8857142D01*
X56107142Y-8904761D01*
X56183333Y-8952380D01*
X56411904Y-8952380D01*
X56488095Y-8904761D01*
X56526190Y-8857142D01*
X55726190Y-8047619D02*
X55688095Y-8000000D01*
X55611904Y-7952380D01*
X55421428Y-7952380D01*
X55345238Y-8000000D01*
X55307142Y-8047619D01*
X55269047Y-8142857D01*
X55269047Y-8238095D01*
X55307142Y-8380952D01*
X55764285Y-8952380D01*
X55269047Y-8952380D01*
X63173809Y-8952380D02*
X63630952Y-8952380D01*
X63402380Y-8952380D02*
X63402380Y-7952380D01*
X63478571Y-8095238D01*
X63554761Y-8190476D01*
X63630952Y-8238095D01*
X62830952Y-8857142D02*
X62792857Y-8904761D01*
X62830952Y-8952380D01*
X62869047Y-8904761D01*
X62830952Y-8857142D01*
X62830952Y-8952380D01*
X62297619Y-7952380D02*
X62221428Y-7952380D01*
X62145238Y-8000000D01*
X62107142Y-8047619D01*
X62069047Y-8142857D01*
X62030952Y-8333333D01*
X62030952Y-8571428D01*
X62069047Y-8761904D01*
X62107142Y-8857142D01*
X62145238Y-8904761D01*
X62221428Y-8952380D01*
X62297619Y-8952380D01*
X62373809Y-8904761D01*
X62411904Y-8857142D01*
X62450000Y-8761904D01*
X62488095Y-8571428D01*
X62488095Y-8333333D01*
X62450000Y-8142857D01*
X62411904Y-8047619D01*
X62373809Y-8000000D01*
X62297619Y-7952380D01*
X61345238Y-8285714D02*
X61345238Y-8952380D01*
X61535714Y-7904761D02*
X61726190Y-8619047D01*
X61230952Y-8619047D01*
X54440476Y-7952380D02*
X54364285Y-7952380D01*
X54288095Y-8000000D01*
X54250000Y-8047619D01*
X54211904Y-8142857D01*
X54173809Y-8333333D01*
X54173809Y-8571428D01*
X54211904Y-8761904D01*
X54250000Y-8857142D01*
X54288095Y-8904761D01*
X54364285Y-8952380D01*
X54440476Y-8952380D01*
X54516666Y-8904761D01*
X54554761Y-8857142D01*
X54592857Y-8761904D01*
X54630952Y-8571428D01*
X54630952Y-8333333D01*
X54592857Y-8142857D01*
X54554761Y-8047619D01*
X54516666Y-8000000D01*
X54440476Y-7952380D01*
X53830952Y-8857142D02*
X53792857Y-8904761D01*
X53830952Y-8952380D01*
X53869047Y-8904761D01*
X53830952Y-8857142D01*
X53830952Y-8952380D01*
X53297619Y-7952380D02*
X53221428Y-7952380D01*
X53145238Y-8000000D01*
X53107142Y-8047619D01*
X53069047Y-8142857D01*
X53030952Y-8333333D01*
X53030952Y-8571428D01*
X53069047Y-8761904D01*
X53107142Y-8857142D01*
X53145238Y-8904761D01*
X53221428Y-8952380D01*
X53297619Y-8952380D01*
X53373809Y-8904761D01*
X53411904Y-8857142D01*
X53450000Y-8761904D01*
X53488095Y-8571428D01*
X53488095Y-8333333D01*
X53450000Y-8142857D01*
X53411904Y-8047619D01*
X53373809Y-8000000D01*
X53297619Y-7952380D01*
X52726190Y-8047619D02*
X52688095Y-8000000D01*
X52611904Y-7952380D01*
X52421428Y-7952380D01*
X52345238Y-8000000D01*
X52307142Y-8047619D01*
X52269047Y-8142857D01*
X52269047Y-8238095D01*
X52307142Y-8380952D01*
X52764285Y-8952380D01*
X52269047Y-8952380D01*
X57140476Y-15952380D02*
X57711904Y-15952380D01*
X57426190Y-15952380D02*
X57426190Y-14952380D01*
X57521428Y-15095238D01*
X57616666Y-15190476D01*
X57711904Y-15238095D01*
X56759523Y-15047619D02*
X56711904Y-15000000D01*
X56616666Y-14952380D01*
X56378571Y-14952380D01*
X56283333Y-15000000D01*
X56235714Y-15047619D01*
X56188095Y-15142857D01*
X56188095Y-15238095D01*
X56235714Y-15380952D01*
X56807142Y-15952380D01*
X56188095Y-15952380D01*
X59640476Y-6952380D02*
X60211904Y-6952380D01*
X59926190Y-6952380D02*
X59926190Y-5952380D01*
X60021428Y-6095238D01*
X60116666Y-6190476D01*
X60211904Y-6238095D01*
X59164285Y-6952380D02*
X58973809Y-6952380D01*
X58878571Y-6904761D01*
X58830952Y-6857142D01*
X58735714Y-6714285D01*
X58688095Y-6523809D01*
X58688095Y-6142857D01*
X58735714Y-6047619D01*
X58783333Y-6000000D01*
X58878571Y-5952380D01*
X59069047Y-5952380D01*
X59164285Y-6000000D01*
X59211904Y-6047619D01*
X59259523Y-6142857D01*
X59259523Y-6380952D01*
X59211904Y-6476190D01*
X59164285Y-6523809D01*
X59069047Y-6571428D01*
X58878571Y-6571428D01*
X58783333Y-6523809D01*
X58735714Y-6476190D01*
X58688095Y-6380952D01*
X54211904Y-6047619D02*
X54164285Y-6000000D01*
X54069047Y-5952380D01*
X53830952Y-5952380D01*
X53735714Y-6000000D01*
X53688095Y-6047619D01*
X53640476Y-6142857D01*
X53640476Y-6238095D01*
X53688095Y-6380952D01*
X54259523Y-6952380D01*
X53640476Y-6952380D01*
X52783333Y-6285714D02*
X52783333Y-6952380D01*
X53021428Y-5904761D02*
X53259523Y-6619047D01*
X52640476Y-6619047D01*
X54630952Y-17047619D02*
X54592857Y-17000000D01*
X54516666Y-16952380D01*
X54326190Y-16952380D01*
X54250000Y-17000000D01*
X54211904Y-17047619D01*
X54173809Y-17142857D01*
X54173809Y-17238095D01*
X54211904Y-17380952D01*
X54669047Y-17952380D01*
X54173809Y-17952380D01*
X53830952Y-17857142D02*
X53792857Y-17904761D01*
X53830952Y-17952380D01*
X53869047Y-17904761D01*
X53830952Y-17857142D01*
X53830952Y-17952380D01*
X53297619Y-16952380D02*
X53221428Y-16952380D01*
X53145238Y-17000000D01*
X53107142Y-17047619D01*
X53069047Y-17142857D01*
X53030952Y-17333333D01*
X53030952Y-17571428D01*
X53069047Y-17761904D01*
X53107142Y-17857142D01*
X53145238Y-17904761D01*
X53221428Y-17952380D01*
X53297619Y-17952380D01*
X53373809Y-17904761D01*
X53411904Y-17857142D01*
X53450000Y-17761904D01*
X53488095Y-17571428D01*
X53488095Y-17333333D01*
X53450000Y-17142857D01*
X53411904Y-17047619D01*
X53373809Y-17000000D01*
X53297619Y-16952380D01*
X52573809Y-17380952D02*
X52650000Y-17333333D01*
X52688095Y-17285714D01*
X52726190Y-17190476D01*
X52726190Y-17142857D01*
X52688095Y-17047619D01*
X52650000Y-17000000D01*
X52573809Y-16952380D01*
X52421428Y-16952380D01*
X52345238Y-17000000D01*
X52307142Y-17047619D01*
X52269047Y-17142857D01*
X52269047Y-17190476D01*
X52307142Y-17285714D01*
X52345238Y-17333333D01*
X52421428Y-17380952D01*
X52573809Y-17380952D01*
X52650000Y-17428571D01*
X52688095Y-17476190D01*
X52726190Y-17571428D01*
X52726190Y-17761904D01*
X52688095Y-17857142D01*
X52650000Y-17904761D01*
X52573809Y-17952380D01*
X52421428Y-17952380D01*
X52345238Y-17904761D01*
X52307142Y-17857142D01*
X52269047Y-17761904D01*
X52269047Y-17571428D01*
X52307142Y-17476190D01*
X52345238Y-17428571D01*
X52421428Y-17380952D01*
X58169047Y-16952380D02*
X57673809Y-16952380D01*
X57940476Y-17333333D01*
X57826190Y-17333333D01*
X57750000Y-17380952D01*
X57711904Y-17428571D01*
X57673809Y-17523809D01*
X57673809Y-17761904D01*
X57711904Y-17857142D01*
X57750000Y-17904761D01*
X57826190Y-17952380D01*
X58054761Y-17952380D01*
X58130952Y-17904761D01*
X58169047Y-17857142D01*
X57330952Y-17857142D02*
X57292857Y-17904761D01*
X57330952Y-17952380D01*
X57369047Y-17904761D01*
X57330952Y-17857142D01*
X57330952Y-17952380D01*
X57026190Y-16952380D02*
X56530952Y-16952380D01*
X56797619Y-17333333D01*
X56683333Y-17333333D01*
X56607142Y-17380952D01*
X56569047Y-17428571D01*
X56530952Y-17523809D01*
X56530952Y-17761904D01*
X56569047Y-17857142D01*
X56607142Y-17904761D01*
X56683333Y-17952380D01*
X56911904Y-17952380D01*
X56988095Y-17904761D01*
X57026190Y-17857142D01*
X55769047Y-17952380D02*
X56226190Y-17952380D01*
X55997619Y-17952380D02*
X55997619Y-16952380D01*
X56073809Y-17095238D01*
X56150000Y-17190476D01*
X56226190Y-17238095D01*
X62478571Y-17380952D02*
X62554761Y-17333333D01*
X62592857Y-17285714D01*
X62630952Y-17190476D01*
X62630952Y-17142857D01*
X62592857Y-17047619D01*
X62554761Y-17000000D01*
X62478571Y-16952380D01*
X62326190Y-16952380D01*
X62250000Y-17000000D01*
X62211904Y-17047619D01*
X62173809Y-17142857D01*
X62173809Y-17190476D01*
X62211904Y-17285714D01*
X62250000Y-17333333D01*
X62326190Y-17380952D01*
X62478571Y-17380952D01*
X62554761Y-17428571D01*
X62592857Y-17476190D01*
X62630952Y-17571428D01*
X62630952Y-17761904D01*
X62592857Y-17857142D01*
X62554761Y-17904761D01*
X62478571Y-17952380D01*
X62326190Y-17952380D01*
X62250000Y-17904761D01*
X62211904Y-17857142D01*
X62173809Y-17761904D01*
X62173809Y-17571428D01*
X62211904Y-17476190D01*
X62250000Y-17428571D01*
X62326190Y-17380952D01*
X61830952Y-17857142D02*
X61792857Y-17904761D01*
X61830952Y-17952380D01*
X61869047Y-17904761D01*
X61830952Y-17857142D01*
X61830952Y-17952380D01*
X61526190Y-16952380D02*
X61030952Y-16952380D01*
X61297619Y-17333333D01*
X61183333Y-17333333D01*
X61107142Y-17380952D01*
X61069047Y-17428571D01*
X61030952Y-17523809D01*
X61030952Y-17761904D01*
X61069047Y-17857142D01*
X61107142Y-17904761D01*
X61183333Y-17952380D01*
X61411904Y-17952380D01*
X61488095Y-17904761D01*
X61526190Y-17857142D01*
X60764285Y-16952380D02*
X60230952Y-16952380D01*
X60573809Y-17952380D01*
X51211904Y-6047619D02*
X51164285Y-6000000D01*
X51069047Y-5952380D01*
X50830952Y-5952380D01*
X50735714Y-6000000D01*
X50688095Y-6047619D01*
X50640476Y-6142857D01*
X50640476Y-6238095D01*
X50688095Y-6380952D01*
X51259523Y-6952380D01*
X50640476Y-6952380D01*
X50164285Y-6952380D02*
X49973809Y-6952380D01*
X49878571Y-6904761D01*
X49830952Y-6857142D01*
X49735714Y-6714285D01*
X49688095Y-6523809D01*
X49688095Y-6142857D01*
X49735714Y-6047619D01*
X49783333Y-6000000D01*
X49878571Y-5952380D01*
X50069047Y-5952380D01*
X50164285Y-6000000D01*
X50211904Y-6047619D01*
X50259523Y-6142857D01*
X50259523Y-6380952D01*
X50211904Y-6476190D01*
X50164285Y-6523809D01*
X50069047Y-6571428D01*
X49878571Y-6571428D01*
X49783333Y-6523809D01*
X49735714Y-6476190D01*
X49688095Y-6380952D01*
%TO.C,1206*%
X10392857Y-3202380D02*
X10964285Y-3202380D01*
X10678571Y-3202380D02*
X10678571Y-2202380D01*
X10773809Y-2345238D01*
X10869047Y-2440476D01*
X10964285Y-2488095D01*
X10011904Y-2297619D02*
X9964285Y-2250000D01*
X9869047Y-2202380D01*
X9630952Y-2202380D01*
X9535714Y-2250000D01*
X9488095Y-2297619D01*
X9440476Y-2392857D01*
X9440476Y-2488095D01*
X9488095Y-2630952D01*
X10059523Y-3202380D01*
X9440476Y-3202380D01*
X8821428Y-2202380D02*
X8726190Y-2202380D01*
X8630952Y-2250000D01*
X8583333Y-2297619D01*
X8535714Y-2392857D01*
X8488095Y-2583333D01*
X8488095Y-2821428D01*
X8535714Y-3011904D01*
X8583333Y-3107142D01*
X8630952Y-3154761D01*
X8726190Y-3202380D01*
X8821428Y-3202380D01*
X8916666Y-3154761D01*
X8964285Y-3107142D01*
X9011904Y-3011904D01*
X9059523Y-2821428D01*
X9059523Y-2583333D01*
X9011904Y-2392857D01*
X8964285Y-2297619D01*
X8916666Y-2250000D01*
X8821428Y-2202380D01*
X7630952Y-2202380D02*
X7821428Y-2202380D01*
X7916666Y-2250000D01*
X7964285Y-2297619D01*
X8059523Y-2440476D01*
X8107142Y-2630952D01*
X8107142Y-3011904D01*
X8059523Y-3107142D01*
X8011904Y-3154761D01*
X7916666Y-3202380D01*
X7726190Y-3202380D01*
X7630952Y-3154761D01*
X7583333Y-3107142D01*
X7535714Y-3011904D01*
X7535714Y-2773809D01*
X7583333Y-2678571D01*
X7630952Y-2630952D01*
X7726190Y-2583333D01*
X7916666Y-2583333D01*
X8011904Y-2630952D01*
X8059523Y-2678571D01*
X8107142Y-2773809D01*
%TO.C,0805*%
X11226190Y-6552380D02*
X11130952Y-6552380D01*
X11035714Y-6600000D01*
X10988095Y-6647619D01*
X10940476Y-6742857D01*
X10892857Y-6933333D01*
X10892857Y-7171428D01*
X10940476Y-7361904D01*
X10988095Y-7457142D01*
X11035714Y-7504761D01*
X11130952Y-7552380D01*
X11226190Y-7552380D01*
X11321428Y-7504761D01*
X11369047Y-7457142D01*
X11416666Y-7361904D01*
X11464285Y-7171428D01*
X11464285Y-6933333D01*
X11416666Y-6742857D01*
X11369047Y-6647619D01*
X11321428Y-6600000D01*
X11226190Y-6552380D01*
X10321428Y-6980952D02*
X10416666Y-6933333D01*
X10464285Y-6885714D01*
X10511904Y-6790476D01*
X10511904Y-6742857D01*
X10464285Y-6647619D01*
X10416666Y-6600000D01*
X10321428Y-6552380D01*
X10130952Y-6552380D01*
X10035714Y-6600000D01*
X9988095Y-6647619D01*
X9940476Y-6742857D01*
X9940476Y-6790476D01*
X9988095Y-6885714D01*
X10035714Y-6933333D01*
X10130952Y-6980952D01*
X10321428Y-6980952D01*
X10416666Y-7028571D01*
X10464285Y-7076190D01*
X10511904Y-7171428D01*
X10511904Y-7361904D01*
X10464285Y-7457142D01*
X10416666Y-7504761D01*
X10321428Y-7552380D01*
X10130952Y-7552380D01*
X10035714Y-7504761D01*
X9988095Y-7457142D01*
X9940476Y-7361904D01*
X9940476Y-7171428D01*
X9988095Y-7076190D01*
X10035714Y-7028571D01*
X10130952Y-6980952D01*
X9321428Y-6552380D02*
X9226190Y-6552380D01*
X9130952Y-6600000D01*
X9083333Y-6647619D01*
X9035714Y-6742857D01*
X8988095Y-6933333D01*
X8988095Y-7171428D01*
X9035714Y-7361904D01*
X9083333Y-7457142D01*
X9130952Y-7504761D01*
X9226190Y-7552380D01*
X9321428Y-7552380D01*
X9416666Y-7504761D01*
X9464285Y-7457142D01*
X9511904Y-7361904D01*
X9559523Y-7171428D01*
X9559523Y-6933333D01*
X9511904Y-6742857D01*
X9464285Y-6647619D01*
X9416666Y-6600000D01*
X9321428Y-6552380D01*
X8083333Y-6552380D02*
X8559523Y-6552380D01*
X8607142Y-7028571D01*
X8559523Y-6980952D01*
X8464285Y-6933333D01*
X8226190Y-6933333D01*
X8130952Y-6980952D01*
X8083333Y-7028571D01*
X8035714Y-7123809D01*
X8035714Y-7361904D01*
X8083333Y-7457142D01*
X8130952Y-7504761D01*
X8226190Y-7552380D01*
X8464285Y-7552380D01*
X8559523Y-7504761D01*
X8607142Y-7457142D01*
%TO.C,0603*%
X11476190Y-16702380D02*
X11380952Y-16702380D01*
X11285714Y-16750000D01*
X11238095Y-16797619D01*
X11190476Y-16892857D01*
X11142857Y-17083333D01*
X11142857Y-17321428D01*
X11190476Y-17511904D01*
X11238095Y-17607142D01*
X11285714Y-17654761D01*
X11380952Y-17702380D01*
X11476190Y-17702380D01*
X11571428Y-17654761D01*
X11619047Y-17607142D01*
X11666666Y-17511904D01*
X11714285Y-17321428D01*
X11714285Y-17083333D01*
X11666666Y-16892857D01*
X11619047Y-16797619D01*
X11571428Y-16750000D01*
X11476190Y-16702380D01*
X10285714Y-16702380D02*
X10476190Y-16702380D01*
X10571428Y-16750000D01*
X10619047Y-16797619D01*
X10714285Y-16940476D01*
X10761904Y-17130952D01*
X10761904Y-17511904D01*
X10714285Y-17607142D01*
X10666666Y-17654761D01*
X10571428Y-17702380D01*
X10380952Y-17702380D01*
X10285714Y-17654761D01*
X10238095Y-17607142D01*
X10190476Y-17511904D01*
X10190476Y-17273809D01*
X10238095Y-17178571D01*
X10285714Y-17130952D01*
X10380952Y-17083333D01*
X10571428Y-17083333D01*
X10666666Y-17130952D01*
X10714285Y-17178571D01*
X10761904Y-17273809D01*
X9571428Y-16702380D02*
X9476190Y-16702380D01*
X9380952Y-16750000D01*
X9333333Y-16797619D01*
X9285714Y-16892857D01*
X9238095Y-17083333D01*
X9238095Y-17321428D01*
X9285714Y-17511904D01*
X9333333Y-17607142D01*
X9380952Y-17654761D01*
X9476190Y-17702380D01*
X9571428Y-17702380D01*
X9666666Y-17654761D01*
X9714285Y-17607142D01*
X9761904Y-17511904D01*
X9809523Y-17321428D01*
X9809523Y-17083333D01*
X9761904Y-16892857D01*
X9714285Y-16797619D01*
X9666666Y-16750000D01*
X9571428Y-16702380D01*
X8904761Y-16702380D02*
X8285714Y-16702380D01*
X8619047Y-17083333D01*
X8476190Y-17083333D01*
X8380952Y-17130952D01*
X8333333Y-17178571D01*
X8285714Y-17273809D01*
X8285714Y-17511904D01*
X8333333Y-17607142D01*
X8380952Y-17654761D01*
X8476190Y-17702380D01*
X8761904Y-17702380D01*
X8857142Y-17654761D01*
X8904761Y-17607142D01*
%TO.C,0402*%
X11930952Y-20202380D02*
X11854761Y-20202380D01*
X11778571Y-20250000D01*
X11740476Y-20297619D01*
X11702380Y-20392857D01*
X11664285Y-20583333D01*
X11664285Y-20821428D01*
X11702380Y-21011904D01*
X11740476Y-21107142D01*
X11778571Y-21154761D01*
X11854761Y-21202380D01*
X11930952Y-21202380D01*
X12007142Y-21154761D01*
X12045238Y-21107142D01*
X12083333Y-21011904D01*
X12121428Y-20821428D01*
X12121428Y-20583333D01*
X12083333Y-20392857D01*
X12045238Y-20297619D01*
X12007142Y-20250000D01*
X11930952Y-20202380D01*
X10978571Y-20535714D02*
X10978571Y-21202380D01*
X11169047Y-20154761D02*
X11359523Y-20869047D01*
X10864285Y-20869047D01*
X10407142Y-20202380D02*
X10330952Y-20202380D01*
X10254761Y-20250000D01*
X10216666Y-20297619D01*
X10178571Y-20392857D01*
X10140476Y-20583333D01*
X10140476Y-20821428D01*
X10178571Y-21011904D01*
X10216666Y-21107142D01*
X10254761Y-21154761D01*
X10330952Y-21202380D01*
X10407142Y-21202380D01*
X10483333Y-21154761D01*
X10521428Y-21107142D01*
X10559523Y-21011904D01*
X10597619Y-20821428D01*
X10597619Y-20583333D01*
X10559523Y-20392857D01*
X10521428Y-20297619D01*
X10483333Y-20250000D01*
X10407142Y-20202380D01*
X9835714Y-20297619D02*
X9797619Y-20250000D01*
X9721428Y-20202380D01*
X9530952Y-20202380D01*
X9454761Y-20250000D01*
X9416666Y-20297619D01*
X9378571Y-20392857D01*
X9378571Y-20488095D01*
X9416666Y-20630952D01*
X9873809Y-21202380D01*
X9378571Y-21202380D01*
%TO.C,TSSOP*%
X32202380Y-2738095D02*
X32202380Y-3309523D01*
X33202380Y-3023809D02*
X32202380Y-3023809D01*
X33154761Y-3595238D02*
X33202380Y-3738095D01*
X33202380Y-3976190D01*
X33154761Y-4071428D01*
X33107142Y-4119047D01*
X33011904Y-4166666D01*
X32916666Y-4166666D01*
X32821428Y-4119047D01*
X32773809Y-4071428D01*
X32726190Y-3976190D01*
X32678571Y-3785714D01*
X32630952Y-3690476D01*
X32583333Y-3642857D01*
X32488095Y-3595238D01*
X32392857Y-3595238D01*
X32297619Y-3642857D01*
X32250000Y-3690476D01*
X32202380Y-3785714D01*
X32202380Y-4023809D01*
X32250000Y-4166666D01*
X33154761Y-4547619D02*
X33202380Y-4690476D01*
X33202380Y-4928571D01*
X33154761Y-5023809D01*
X33107142Y-5071428D01*
X33011904Y-5119047D01*
X32916666Y-5119047D01*
X32821428Y-5071428D01*
X32773809Y-5023809D01*
X32726190Y-4928571D01*
X32678571Y-4738095D01*
X32630952Y-4642857D01*
X32583333Y-4595238D01*
X32488095Y-4547619D01*
X32392857Y-4547619D01*
X32297619Y-4595238D01*
X32250000Y-4642857D01*
X32202380Y-4738095D01*
X32202380Y-4976190D01*
X32250000Y-5119047D01*
X32202380Y-5738095D02*
X32202380Y-5928571D01*
X32250000Y-6023809D01*
X32345238Y-6119047D01*
X32535714Y-6166666D01*
X32869047Y-6166666D01*
X33059523Y-6119047D01*
X33154761Y-6023809D01*
X33202380Y-5928571D01*
X33202380Y-5738095D01*
X33154761Y-5642857D01*
X33059523Y-5547619D01*
X32869047Y-5500000D01*
X32535714Y-5500000D01*
X32345238Y-5547619D01*
X32250000Y-5642857D01*
X32202380Y-5738095D01*
X33202380Y-6595238D02*
X32202380Y-6595238D01*
X32202380Y-6976190D01*
X32250000Y-7071428D01*
X32297619Y-7119047D01*
X32392857Y-7166666D01*
X32535714Y-7166666D01*
X32630952Y-7119047D01*
X32678571Y-7071428D01*
X32726190Y-6976190D01*
X32726190Y-6595238D01*
%TO.C,SOD323*%
X23238095Y-15254761D02*
X23095238Y-15302380D01*
X22857142Y-15302380D01*
X22761904Y-15254761D01*
X22714285Y-15207142D01*
X22666666Y-15111904D01*
X22666666Y-15016666D01*
X22714285Y-14921428D01*
X22761904Y-14873809D01*
X22857142Y-14826190D01*
X23047619Y-14778571D01*
X23142857Y-14730952D01*
X23190476Y-14683333D01*
X23238095Y-14588095D01*
X23238095Y-14492857D01*
X23190476Y-14397619D01*
X23142857Y-14350000D01*
X23047619Y-14302380D01*
X22809523Y-14302380D01*
X22666666Y-14350000D01*
X22047619Y-14302380D02*
X21857142Y-14302380D01*
X21761904Y-14350000D01*
X21666666Y-14445238D01*
X21619047Y-14635714D01*
X21619047Y-14969047D01*
X21666666Y-15159523D01*
X21761904Y-15254761D01*
X21857142Y-15302380D01*
X22047619Y-15302380D01*
X22142857Y-15254761D01*
X22238095Y-15159523D01*
X22285714Y-14969047D01*
X22285714Y-14635714D01*
X22238095Y-14445238D01*
X22142857Y-14350000D01*
X22047619Y-14302380D01*
X21190476Y-15302380D02*
X21190476Y-14302380D01*
X20952380Y-14302380D01*
X20809523Y-14350000D01*
X20714285Y-14445238D01*
X20666666Y-14540476D01*
X20619047Y-14730952D01*
X20619047Y-14873809D01*
X20666666Y-15064285D01*
X20714285Y-15159523D01*
X20809523Y-15254761D01*
X20952380Y-15302380D01*
X21190476Y-15302380D01*
X20285714Y-14302380D02*
X19666666Y-14302380D01*
X20000000Y-14683333D01*
X19857142Y-14683333D01*
X19761904Y-14730952D01*
X19714285Y-14778571D01*
X19666666Y-14873809D01*
X19666666Y-15111904D01*
X19714285Y-15207142D01*
X19761904Y-15254761D01*
X19857142Y-15302380D01*
X20142857Y-15302380D01*
X20238095Y-15254761D01*
X20285714Y-15207142D01*
X19285714Y-14397619D02*
X19238095Y-14350000D01*
X19142857Y-14302380D01*
X18904761Y-14302380D01*
X18809523Y-14350000D01*
X18761904Y-14397619D01*
X18714285Y-14492857D01*
X18714285Y-14588095D01*
X18761904Y-14730952D01*
X19333333Y-15302380D01*
X18714285Y-15302380D01*
X18380952Y-14302380D02*
X17761904Y-14302380D01*
X18095238Y-14683333D01*
X17952380Y-14683333D01*
X17857142Y-14730952D01*
X17809523Y-14778571D01*
X17761904Y-14873809D01*
X17761904Y-15111904D01*
X17809523Y-15207142D01*
X17857142Y-15254761D01*
X17952380Y-15302380D01*
X18238095Y-15302380D01*
X18333333Y-15254761D01*
X18380952Y-15207142D01*
%TO.C,SMA*%
X26904761Y-8464285D02*
X26952380Y-8607142D01*
X26952380Y-8845238D01*
X26904761Y-8940476D01*
X26857142Y-8988095D01*
X26761904Y-9035714D01*
X26666666Y-9035714D01*
X26571428Y-8988095D01*
X26523809Y-8940476D01*
X26476190Y-8845238D01*
X26428571Y-8654761D01*
X26380952Y-8559523D01*
X26333333Y-8511904D01*
X26238095Y-8464285D01*
X26142857Y-8464285D01*
X26047619Y-8511904D01*
X26000000Y-8559523D01*
X25952380Y-8654761D01*
X25952380Y-8892857D01*
X26000000Y-9035714D01*
X26952380Y-9464285D02*
X25952380Y-9464285D01*
X26666666Y-9797619D01*
X25952380Y-10130952D01*
X26952380Y-10130952D01*
X26666666Y-10559523D02*
X26666666Y-11035714D01*
X26952380Y-10464285D02*
X25952380Y-10797619D01*
X26952380Y-11130952D01*
%TO.C,SMB*%
X26904761Y-3892857D02*
X26952380Y-4035714D01*
X26952380Y-4273809D01*
X26904761Y-4369047D01*
X26857142Y-4416666D01*
X26761904Y-4464285D01*
X26666666Y-4464285D01*
X26571428Y-4416666D01*
X26523809Y-4369047D01*
X26476190Y-4273809D01*
X26428571Y-4083333D01*
X26380952Y-3988095D01*
X26333333Y-3940476D01*
X26238095Y-3892857D01*
X26142857Y-3892857D01*
X26047619Y-3940476D01*
X26000000Y-3988095D01*
X25952380Y-4083333D01*
X25952380Y-4321428D01*
X26000000Y-4464285D01*
X26952380Y-4892857D02*
X25952380Y-4892857D01*
X26666666Y-5226190D01*
X25952380Y-5559523D01*
X26952380Y-5559523D01*
X26428571Y-6369047D02*
X26476190Y-6511904D01*
X26523809Y-6559523D01*
X26619047Y-6607142D01*
X26761904Y-6607142D01*
X26857142Y-6559523D01*
X26904761Y-6511904D01*
X26952380Y-6416666D01*
X26952380Y-6035714D01*
X25952380Y-6035714D01*
X25952380Y-6369047D01*
X26000000Y-6464285D01*
X26047619Y-6511904D01*
X26142857Y-6559523D01*
X26238095Y-6559523D01*
X26333333Y-6511904D01*
X26380952Y-6464285D01*
X26428571Y-6369047D01*
X26428571Y-6035714D01*
%TO.C,SOT23*%
X17392857Y-7904761D02*
X17250000Y-7952380D01*
X17011904Y-7952380D01*
X16916666Y-7904761D01*
X16869047Y-7857142D01*
X16821428Y-7761904D01*
X16821428Y-7666666D01*
X16869047Y-7571428D01*
X16916666Y-7523809D01*
X17011904Y-7476190D01*
X17202380Y-7428571D01*
X17297619Y-7380952D01*
X17345238Y-7333333D01*
X17392857Y-7238095D01*
X17392857Y-7142857D01*
X17345238Y-7047619D01*
X17297619Y-7000000D01*
X17202380Y-6952380D01*
X16964285Y-6952380D01*
X16821428Y-7000000D01*
X16202380Y-6952380D02*
X16011904Y-6952380D01*
X15916666Y-7000000D01*
X15821428Y-7095238D01*
X15773809Y-7285714D01*
X15773809Y-7619047D01*
X15821428Y-7809523D01*
X15916666Y-7904761D01*
X16011904Y-7952380D01*
X16202380Y-7952380D01*
X16297619Y-7904761D01*
X16392857Y-7809523D01*
X16440476Y-7619047D01*
X16440476Y-7285714D01*
X16392857Y-7095238D01*
X16297619Y-7000000D01*
X16202380Y-6952380D01*
X15488095Y-6952380D02*
X14916666Y-6952380D01*
X15202380Y-7952380D02*
X15202380Y-6952380D01*
X14630952Y-7047619D02*
X14583333Y-7000000D01*
X14488095Y-6952380D01*
X14250000Y-6952380D01*
X14154761Y-7000000D01*
X14107142Y-7047619D01*
X14059523Y-7142857D01*
X14059523Y-7238095D01*
X14107142Y-7380952D01*
X14678571Y-7952380D01*
X14059523Y-7952380D01*
X13726190Y-6952380D02*
X13107142Y-6952380D01*
X13440476Y-7333333D01*
X13297619Y-7333333D01*
X13202380Y-7380952D01*
X13154761Y-7428571D01*
X13107142Y-7523809D01*
X13107142Y-7761904D01*
X13154761Y-7857142D01*
X13202380Y-7904761D01*
X13297619Y-7952380D01*
X13583333Y-7952380D01*
X13678571Y-7904761D01*
X13726190Y-7857142D01*
%TO.C,SOIC8*%
X33079761Y-15526190D02*
X33127380Y-15669047D01*
X33127380Y-15907142D01*
X33079761Y-16002380D01*
X33032142Y-16050000D01*
X32936904Y-16097619D01*
X32841666Y-16097619D01*
X32746428Y-16050000D01*
X32698809Y-16002380D01*
X32651190Y-15907142D01*
X32603571Y-15716666D01*
X32555952Y-15621428D01*
X32508333Y-15573809D01*
X32413095Y-15526190D01*
X32317857Y-15526190D01*
X32222619Y-15573809D01*
X32175000Y-15621428D01*
X32127380Y-15716666D01*
X32127380Y-15954761D01*
X32175000Y-16097619D01*
X32127380Y-16716666D02*
X32127380Y-16907142D01*
X32175000Y-17002380D01*
X32270238Y-17097619D01*
X32460714Y-17145238D01*
X32794047Y-17145238D01*
X32984523Y-17097619D01*
X33079761Y-17002380D01*
X33127380Y-16907142D01*
X33127380Y-16716666D01*
X33079761Y-16621428D01*
X32984523Y-16526190D01*
X32794047Y-16478571D01*
X32460714Y-16478571D01*
X32270238Y-16526190D01*
X32175000Y-16621428D01*
X32127380Y-16716666D01*
X33127380Y-17573809D02*
X32127380Y-17573809D01*
X33032142Y-18621428D02*
X33079761Y-18573809D01*
X33127380Y-18430952D01*
X33127380Y-18335714D01*
X33079761Y-18192857D01*
X32984523Y-18097619D01*
X32889285Y-18050000D01*
X32698809Y-18002380D01*
X32555952Y-18002380D01*
X32365476Y-18050000D01*
X32270238Y-18097619D01*
X32175000Y-18192857D01*
X32127380Y-18335714D01*
X32127380Y-18430952D01*
X32175000Y-18573809D01*
X32222619Y-18621428D01*
X32555952Y-19192857D02*
X32508333Y-19097619D01*
X32460714Y-19050000D01*
X32365476Y-19002380D01*
X32317857Y-19002380D01*
X32222619Y-19050000D01*
X32175000Y-19097619D01*
X32127380Y-19192857D01*
X32127380Y-19383333D01*
X32175000Y-19478571D01*
X32222619Y-19526190D01*
X32317857Y-19573809D01*
X32365476Y-19573809D01*
X32460714Y-19526190D01*
X32508333Y-19478571D01*
X32555952Y-19383333D01*
X32555952Y-19192857D01*
X32603571Y-19097619D01*
X32651190Y-19050000D01*
X32746428Y-19002380D01*
X32936904Y-19002380D01*
X33032142Y-19050000D01*
X33079761Y-19097619D01*
X33127380Y-19192857D01*
X33127380Y-19383333D01*
X33079761Y-19478571D01*
X33032142Y-19526190D01*
X32936904Y-19573809D01*
X32746428Y-19573809D01*
X32651190Y-19526190D01*
X32603571Y-19478571D01*
X32555952Y-19383333D01*
%TO.C,QFN28*%
X16273809Y-19647619D02*
X16369047Y-19600000D01*
X16464285Y-19504761D01*
X16607142Y-19361904D01*
X16702380Y-19314285D01*
X16797619Y-19314285D01*
X16750000Y-19552380D02*
X16845238Y-19504761D01*
X16940476Y-19409523D01*
X16988095Y-19219047D01*
X16988095Y-18885714D01*
X16940476Y-18695238D01*
X16845238Y-18600000D01*
X16750000Y-18552380D01*
X16559523Y-18552380D01*
X16464285Y-18600000D01*
X16369047Y-18695238D01*
X16321428Y-18885714D01*
X16321428Y-19219047D01*
X16369047Y-19409523D01*
X16464285Y-19504761D01*
X16559523Y-19552380D01*
X16750000Y-19552380D01*
X15559523Y-19028571D02*
X15892857Y-19028571D01*
X15892857Y-19552380D02*
X15892857Y-18552380D01*
X15416666Y-18552380D01*
X15035714Y-19552380D02*
X15035714Y-18552380D01*
X14464285Y-19552380D01*
X14464285Y-18552380D01*
X14035714Y-18647619D02*
X13988095Y-18600000D01*
X13892857Y-18552380D01*
X13654761Y-18552380D01*
X13559523Y-18600000D01*
X13511904Y-18647619D01*
X13464285Y-18742857D01*
X13464285Y-18838095D01*
X13511904Y-18980952D01*
X14083333Y-19552380D01*
X13464285Y-19552380D01*
X12892857Y-18980952D02*
X12988095Y-18933333D01*
X13035714Y-18885714D01*
X13083333Y-18790476D01*
X13083333Y-18742857D01*
X13035714Y-18647619D01*
X12988095Y-18600000D01*
X12892857Y-18552380D01*
X12702380Y-18552380D01*
X12607142Y-18600000D01*
X12559523Y-18647619D01*
X12511904Y-18742857D01*
X12511904Y-18790476D01*
X12559523Y-18885714D01*
X12607142Y-18933333D01*
X12702380Y-18980952D01*
X12892857Y-18980952D01*
X12988095Y-19028571D01*
X13035714Y-19076190D01*
X13083333Y-19171428D01*
X13083333Y-19361904D01*
X13035714Y-19457142D01*
X12988095Y-19504761D01*
X12892857Y-19552380D01*
X12702380Y-19552380D01*
X12607142Y-19504761D01*
X12559523Y-19457142D01*
X12511904Y-19361904D01*
X12511904Y-19171428D01*
X12559523Y-19076190D01*
X12607142Y-19028571D01*
X12702380Y-18980952D01*
%TO.C,SOT89*%
X33392857Y-14404761D02*
X33250000Y-14452380D01*
X33011904Y-14452380D01*
X32916666Y-14404761D01*
X32869047Y-14357142D01*
X32821428Y-14261904D01*
X32821428Y-14166666D01*
X32869047Y-14071428D01*
X32916666Y-14023809D01*
X33011904Y-13976190D01*
X33202380Y-13928571D01*
X33297619Y-13880952D01*
X33345238Y-13833333D01*
X33392857Y-13738095D01*
X33392857Y-13642857D01*
X33345238Y-13547619D01*
X33297619Y-13500000D01*
X33202380Y-13452380D01*
X32964285Y-13452380D01*
X32821428Y-13500000D01*
X32202380Y-13452380D02*
X32011904Y-13452380D01*
X31916666Y-13500000D01*
X31821428Y-13595238D01*
X31773809Y-13785714D01*
X31773809Y-14119047D01*
X31821428Y-14309523D01*
X31916666Y-14404761D01*
X32011904Y-14452380D01*
X32202380Y-14452380D01*
X32297619Y-14404761D01*
X32392857Y-14309523D01*
X32440476Y-14119047D01*
X32440476Y-13785714D01*
X32392857Y-13595238D01*
X32297619Y-13500000D01*
X32202380Y-13452380D01*
X31488095Y-13452380D02*
X30916666Y-13452380D01*
X31202380Y-14452380D02*
X31202380Y-13452380D01*
X30440476Y-13880952D02*
X30535714Y-13833333D01*
X30583333Y-13785714D01*
X30630952Y-13690476D01*
X30630952Y-13642857D01*
X30583333Y-13547619D01*
X30535714Y-13500000D01*
X30440476Y-13452380D01*
X30250000Y-13452380D01*
X30154761Y-13500000D01*
X30107142Y-13547619D01*
X30059523Y-13642857D01*
X30059523Y-13690476D01*
X30107142Y-13785714D01*
X30154761Y-13833333D01*
X30250000Y-13880952D01*
X30440476Y-13880952D01*
X30535714Y-13928571D01*
X30583333Y-13976190D01*
X30630952Y-14071428D01*
X30630952Y-14261904D01*
X30583333Y-14357142D01*
X30535714Y-14404761D01*
X30440476Y-14452380D01*
X30250000Y-14452380D01*
X30154761Y-14404761D01*
X30107142Y-14357142D01*
X30059523Y-14261904D01*
X30059523Y-14071428D01*
X30107142Y-13976190D01*
X30154761Y-13928571D01*
X30250000Y-13880952D01*
X29583333Y-14452380D02*
X29392857Y-14452380D01*
X29297619Y-14404761D01*
X29250000Y-14357142D01*
X29154761Y-14214285D01*
X29107142Y-14023809D01*
X29107142Y-13642857D01*
X29154761Y-13547619D01*
X29202380Y-13500000D01*
X29297619Y-13452380D01*
X29488095Y-13452380D01*
X29583333Y-13500000D01*
X29630952Y-13547619D01*
X29678571Y-13642857D01*
X29678571Y-13880952D01*
X29630952Y-13976190D01*
X29583333Y-14023809D01*
X29488095Y-14071428D01*
X29297619Y-14071428D01*
X29202380Y-14023809D01*
X29154761Y-13976190D01*
X29107142Y-13880952D01*
%TO.C,SC70/*%
X28011904Y-17154761D02*
X27869047Y-17202380D01*
X27630952Y-17202380D01*
X27535714Y-17154761D01*
X27488095Y-17107142D01*
X27440476Y-17011904D01*
X27440476Y-16916666D01*
X27488095Y-16821428D01*
X27535714Y-16773809D01*
X27630952Y-16726190D01*
X27821428Y-16678571D01*
X27916666Y-16630952D01*
X27964285Y-16583333D01*
X28011904Y-16488095D01*
X28011904Y-16392857D01*
X27964285Y-16297619D01*
X27916666Y-16250000D01*
X27821428Y-16202380D01*
X27583333Y-16202380D01*
X27440476Y-16250000D01*
X26440476Y-17107142D02*
X26488095Y-17154761D01*
X26630952Y-17202380D01*
X26726190Y-17202380D01*
X26869047Y-17154761D01*
X26964285Y-17059523D01*
X27011904Y-16964285D01*
X27059523Y-16773809D01*
X27059523Y-16630952D01*
X27011904Y-16440476D01*
X26964285Y-16345238D01*
X26869047Y-16250000D01*
X26726190Y-16202380D01*
X26630952Y-16202380D01*
X26488095Y-16250000D01*
X26440476Y-16297619D01*
X26107142Y-16202380D02*
X25440476Y-16202380D01*
X25869047Y-17202380D01*
X24869047Y-16202380D02*
X24773809Y-16202380D01*
X24678571Y-16250000D01*
X24630952Y-16297619D01*
X24583333Y-16392857D01*
X24535714Y-16583333D01*
X24535714Y-16821428D01*
X24583333Y-17011904D01*
X24630952Y-17107142D01*
X24678571Y-17154761D01*
X24773809Y-17202380D01*
X24869047Y-17202380D01*
X24964285Y-17154761D01*
X25011904Y-17107142D01*
X25059523Y-17011904D01*
X25107142Y-16821428D01*
X25107142Y-16583333D01*
X25059523Y-16392857D01*
X25011904Y-16297619D01*
X24964285Y-16250000D01*
X24869047Y-16202380D01*
X23392857Y-16154761D02*
X24250000Y-17440476D01*
%TO.C,BGA16*%
X22084523Y-20428571D02*
X21941666Y-20476190D01*
X21894047Y-20523809D01*
X21846428Y-20619047D01*
X21846428Y-20761904D01*
X21894047Y-20857142D01*
X21941666Y-20904761D01*
X22036904Y-20952380D01*
X22417857Y-20952380D01*
X22417857Y-19952380D01*
X22084523Y-19952380D01*
X21989285Y-20000000D01*
X21941666Y-20047619D01*
X21894047Y-20142857D01*
X21894047Y-20238095D01*
X21941666Y-20333333D01*
X21989285Y-20380952D01*
X22084523Y-20428571D01*
X22417857Y-20428571D01*
X20894047Y-20000000D02*
X20989285Y-19952380D01*
X21132142Y-19952380D01*
X21275000Y-20000000D01*
X21370238Y-20095238D01*
X21417857Y-20190476D01*
X21465476Y-20380952D01*
X21465476Y-20523809D01*
X21417857Y-20714285D01*
X21370238Y-20809523D01*
X21275000Y-20904761D01*
X21132142Y-20952380D01*
X21036904Y-20952380D01*
X20894047Y-20904761D01*
X20846428Y-20857142D01*
X20846428Y-20523809D01*
X21036904Y-20523809D01*
X20465476Y-20666666D02*
X19989285Y-20666666D01*
X20560714Y-20952380D02*
X20227380Y-19952380D01*
X19894047Y-20952380D01*
X19036904Y-20952380D02*
X19608333Y-20952380D01*
X19322619Y-20952380D02*
X19322619Y-19952380D01*
X19417857Y-20095238D01*
X19513095Y-20190476D01*
X19608333Y-20238095D01*
X18179761Y-19952380D02*
X18370238Y-19952380D01*
X18465476Y-20000000D01*
X18513095Y-20047619D01*
X18608333Y-20190476D01*
X18655952Y-20380952D01*
X18655952Y-20761904D01*
X18608333Y-20857142D01*
X18560714Y-20904761D01*
X18465476Y-20952380D01*
X18275000Y-20952380D01*
X18179761Y-20904761D01*
X18132142Y-20857142D01*
X18084523Y-20761904D01*
X18084523Y-20523809D01*
X18132142Y-20428571D01*
X18179761Y-20380952D01*
X18275000Y-20333333D01*
X18465476Y-20333333D01*
X18560714Y-20380952D01*
X18608333Y-20428571D01*
X18655952Y-20523809D01*
D11*
%TO.C,REF\u002A\u002A*%
X38250560Y-9499700D02*
X38850000Y-9400640D01*
X38451220Y-12298780D02*
X38250560Y-12700100D01*
X39650100Y-10899240D02*
X40048880Y-11000840D01*
X36449700Y-12700100D02*
X36350640Y-12100660D01*
X40048880Y-9700360D02*
X40549260Y-10099140D01*
X37348860Y-12900760D02*
X37249800Y-12700100D01*
X39350380Y-14399360D02*
X38550280Y-14399360D01*
X40450200Y-11999060D02*
X40351140Y-12499440D01*
X36548760Y-10899240D02*
X36851020Y-10398860D01*
X37348860Y-11000840D02*
X37549520Y-10899240D01*
X41049640Y-10701120D02*
X41250300Y-11099900D01*
X38349620Y-11399620D02*
X38451220Y-11900000D01*
X36350640Y-11501220D02*
X36548760Y-10899240D01*
X39551040Y-9499700D02*
X40048880Y-9700360D01*
X40351140Y-11198960D02*
X40450200Y-11600280D01*
X37849240Y-12900760D02*
X37651120Y-12900760D01*
X37849240Y-9598760D02*
X38250560Y-9499700D01*
X39850760Y-12900760D02*
X39449440Y-12900760D01*
X37950840Y-14201240D02*
X37348860Y-13898980D01*
X40549260Y-13700860D02*
X40048880Y-14099640D01*
X41250300Y-11099900D02*
X41349360Y-11600280D01*
X41151240Y-12999820D02*
X40549260Y-13700860D01*
X40351140Y-12499440D02*
X40150480Y-12799160D01*
X37651120Y-12900760D02*
X37348860Y-12900760D01*
X37849240Y-10899240D02*
X38148960Y-11000840D01*
X39449440Y-12900760D02*
X39248780Y-12700100D01*
X41349360Y-12199720D02*
X41151240Y-12999820D01*
X40150480Y-12799160D02*
X39850760Y-12900760D01*
X39350380Y-11000840D02*
X39650100Y-10899240D01*
X38550280Y-14399360D02*
X37950840Y-14201240D01*
X40450200Y-11600280D02*
X40450200Y-11999060D01*
X37549520Y-10899240D02*
X37849240Y-10899240D01*
X39248780Y-11099900D02*
X39350380Y-11000840D01*
X36851020Y-13401140D02*
X36449700Y-12700100D01*
X36851020Y-10398860D02*
X37348860Y-9901020D01*
X38451220Y-11900000D02*
X38451220Y-12298780D01*
X40048880Y-11000840D02*
X40351140Y-11198960D01*
X37348860Y-9901020D02*
X37849240Y-9598760D01*
X40048880Y-14099640D02*
X39350380Y-14399360D01*
X41349360Y-11600280D02*
X41349360Y-12199720D01*
X38850000Y-9400640D02*
X38949060Y-9400640D01*
X40549260Y-10099140D02*
X41049640Y-10701120D01*
X37249800Y-11099900D02*
X37348860Y-11000840D01*
X37348860Y-13898980D02*
X36851020Y-13401140D01*
X38148960Y-11000840D02*
X38349620Y-11399620D01*
X36350640Y-12100660D02*
X36350640Y-11501220D01*
X38250560Y-12700100D02*
X37849240Y-12900760D01*
X38949060Y-9400640D02*
X39551040Y-9499700D01*
D12*
%TO.C,1206*%
X8250000Y-5820000D02*
X10250000Y-5820000D01*
X10250000Y-3680000D02*
X8250000Y-3680000D01*
%TO.C,0805*%
X9150000Y-9630000D02*
X10350000Y-9630000D01*
X10350000Y-7870000D02*
X9150000Y-7870000D01*
%TO.C,0603*%
X10500000Y-14570000D02*
X9500000Y-14570000D01*
X9500000Y-15930000D02*
X10500000Y-15930000D01*
%TO.C,0402*%
X10500000Y-18470000D02*
X11000000Y-18470000D01*
X11000000Y-19530000D02*
X10500000Y-19530000D01*
D10*
%TO.C,TSSOP*%
X30550000Y-2275000D02*
X34950000Y-2275000D01*
X28975000Y-7800000D02*
X34950000Y-7800000D01*
D12*
%TO.C,SOD323*%
X19000000Y-13850000D02*
X19000000Y-12150000D01*
X19000000Y-12150000D02*
X21550000Y-12150000D01*
X19000000Y-13850000D02*
X21550000Y-13850000D01*
%TO.C,SMA*%
X18600000Y-11400000D02*
X24000000Y-11400000D01*
X18600000Y-11400000D02*
X18600000Y-8100000D01*
X18600000Y-8100000D02*
X24000000Y-8100000D01*
%TO.C,SMB*%
X18450000Y-7400000D02*
X18450000Y-3100000D01*
X18450000Y-7400000D02*
X24150000Y-7400000D01*
X18450000Y-3100000D02*
X24150000Y-3100000D01*
%TO.C,SOT23*%
X17010000Y-6330000D02*
X17010000Y-5400000D01*
X17010000Y-6330000D02*
X14850000Y-6330000D01*
X17010000Y-3170000D02*
X15550000Y-3170000D01*
X17010000Y-3170000D02*
X17010000Y-4100000D01*
%TO.C,SOT23-5*%
X15650000Y-11860000D02*
X13200000Y-11860000D01*
X13850000Y-8640000D02*
X15650000Y-8640000D01*
D10*
%TO.C,SOIC8*%
X30550000Y-20075000D02*
X34700000Y-20075000D01*
X30550000Y-14925000D02*
X34700000Y-14925000D01*
X34700000Y-14925000D02*
X34700000Y-15070000D01*
X34700000Y-20075000D02*
X34700000Y-19930000D01*
X30550000Y-14925000D02*
X30550000Y-15070000D01*
X30550000Y-20025000D02*
X29150000Y-20025000D01*
X30550000Y-20075000D02*
X30550000Y-20025000D01*
%TO.C,QFN28*%
X16900000Y-13600000D02*
X16900000Y-14225000D01*
X12600000Y-17900000D02*
X13225000Y-17900000D01*
X12600000Y-13600000D02*
X12600000Y-14225000D01*
X16900000Y-13600000D02*
X16275000Y-13600000D01*
X16900000Y-17900000D02*
X16900000Y-17275000D01*
X16900000Y-17900000D02*
X16275000Y-17900000D01*
X12600000Y-13600000D02*
X13225000Y-13600000D01*
D12*
%TO.C,SOT89*%
X33155000Y-9550000D02*
X33155000Y-8350000D01*
X33155000Y-13150000D02*
X33155000Y-11950000D01*
X33155000Y-8350000D02*
X30455000Y-8350000D01*
X29155000Y-13150000D02*
X33155000Y-13150000D01*
%TO.C,SC70/*%
X24820000Y-11840000D02*
X26230000Y-11840000D01*
X26230000Y-14160000D02*
X26230000Y-13500000D01*
X26230000Y-12500000D02*
X26230000Y-11840000D01*
X26230000Y-14160000D02*
X24200000Y-14160000D01*
%TO.C,BGA16*%
X19075000Y-19000000D02*
X19175000Y-19000000D01*
X19775000Y-19600000D02*
X19775000Y-19700000D01*
X19175000Y-19600000D02*
X19075000Y-19700000D01*
X21375000Y-17400000D02*
X19175000Y-17400000D01*
X19775000Y-19700000D02*
X19075000Y-19700000D01*
X21375000Y-19600000D02*
X21375000Y-17400000D01*
X19175000Y-17400000D02*
X19175000Y-19600000D01*
X19175000Y-19600000D02*
X21375000Y-19600000D01*
X19075000Y-19700000D02*
X19075000Y-19000000D01*
D11*
%TO.C,REF\u002A\u002A*%
X43748860Y-10001020D02*
X44249240Y-9698760D01*
X45951040Y-9599700D02*
X46448880Y-9800360D01*
X44548960Y-10999240D02*
X44548960Y-12200660D01*
X45750380Y-14499360D02*
X44950280Y-14499360D01*
X42750640Y-12200660D02*
X42750640Y-11601220D01*
X45549720Y-13800860D02*
X45049340Y-13800860D01*
X46448880Y-9800360D02*
X46949260Y-10199140D01*
X45951040Y-11298960D02*
X44650560Y-11298960D01*
X45150940Y-13800860D02*
X44950280Y-13800860D01*
X44950280Y-13800860D02*
X44950280Y-12200660D01*
X47749360Y-12299720D02*
X47551240Y-13099820D01*
X43251020Y-13501140D02*
X42849700Y-12800100D01*
X45349060Y-9500640D02*
X45951040Y-9599700D01*
X46050100Y-10999240D02*
X44548960Y-10999240D01*
X42849700Y-12800100D02*
X42750640Y-12200660D01*
X46050100Y-11900940D02*
X44749620Y-11900940D01*
X44249240Y-9698760D02*
X44650560Y-9599700D01*
X45250000Y-9500640D02*
X45349060Y-9500640D01*
X47650300Y-11199900D02*
X47749360Y-11700280D01*
X44749620Y-11601220D02*
X45951040Y-11601220D01*
X44350840Y-14301240D02*
X43748860Y-13998980D01*
X44548960Y-12200660D02*
X46050100Y-12200660D01*
X46050100Y-12200660D02*
X46050100Y-10999240D01*
X43251020Y-10498860D02*
X43748860Y-10001020D01*
X42750640Y-11601220D02*
X42948760Y-10999240D01*
X47449640Y-10801120D02*
X47650300Y-11199900D01*
X45549720Y-12299720D02*
X45549720Y-13800860D01*
X45250000Y-12299720D02*
X45250000Y-13600200D01*
X47749360Y-11700280D02*
X47749360Y-12299720D01*
X42948760Y-10999240D02*
X43251020Y-10498860D01*
X43748860Y-13998980D02*
X43251020Y-13501140D01*
X45250000Y-10100080D02*
X45250000Y-10498860D01*
X46448880Y-14199640D02*
X45750380Y-14499360D01*
X46949260Y-10199140D02*
X47449640Y-10801120D01*
X44650560Y-9599700D02*
X45250000Y-9500640D01*
X44950280Y-14499360D02*
X44350840Y-14301240D01*
X47551240Y-13099820D02*
X46949260Y-13800860D01*
X46949260Y-13800860D02*
X46448880Y-14199640D01*
X45565666Y-10300740D02*
G75*
G03*
X45565666Y-10300740I-315666J0D01*
G01*
%TD*%
M02*
