%TF.GenerationSoftware,KiCad,Pcbnew,(6.0.5-0)*%
%TF.CreationDate,2022-12-25T00:01:24-08:00*%
%TF.ProjectId,PCBRulerSmaller,50434252-756c-4657-9253-6d616c6c6572,1.0*%
%TF.SameCoordinates,PX510ff40PY5d75c80*%
%TF.FileFunction,Soldermask,Top*%
%TF.FilePolarity,Negative*%
%FSLAX46Y46*%
G04 Gerber Fmt 4.6, Leading zero omitted, Abs format (unit mm)*
G04 Created by KiCad (PCBNEW (6.0.5-0)) date 2022-12-25 00:01:24*
%MOMM*%
%LPD*%
G01*
G04 APERTURE LIST*
%ADD10C,0.200000*%
%ADD11C,0.450000*%
%ADD12C,0.600000*%
%ADD13C,0.760000*%
%ADD14C,1.000000*%
%ADD15C,0.150000*%
%ADD16C,0.300000*%
%ADD17C,0.250000*%
%ADD18C,0.120000*%
%ADD19C,0.100000*%
G04 APERTURE END LIST*
D10*
X13250000Y-11500000D02*
X13250000Y-11500000D01*
D11*
X20250000Y-14500000D02*
X13250000Y-14500000D01*
D12*
X20250000Y-16000000D02*
X13250000Y-16000000D01*
D13*
X20250000Y-17500000D02*
X13250000Y-17500000D01*
D14*
X20050000Y-19000000D02*
X13250000Y-19000000D01*
D15*
X13250000Y-10000000D02*
X20250000Y-10000000D01*
D10*
X13250000Y-11500000D02*
X20250000Y-11500000D01*
D16*
X20250000Y-13000000D02*
X13250000Y-13000000D01*
D17*
X10221428Y-4654761D02*
X10221428Y-2654761D01*
X10876666Y-2654761D01*
X11040476Y-2750000D01*
X11122380Y-2845238D01*
X11204285Y-3035714D01*
X11204285Y-3321428D01*
X11122380Y-3511904D01*
X11040476Y-3607142D01*
X10876666Y-3702380D01*
X10221428Y-3702380D01*
X12924285Y-4464285D02*
X12842380Y-4559523D01*
X12596666Y-4654761D01*
X12432857Y-4654761D01*
X12187142Y-4559523D01*
X12023333Y-4369047D01*
X11941428Y-4178571D01*
X11859523Y-3797619D01*
X11859523Y-3511904D01*
X11941428Y-3130952D01*
X12023333Y-2940476D01*
X12187142Y-2750000D01*
X12432857Y-2654761D01*
X12596666Y-2654761D01*
X12842380Y-2750000D01*
X12924285Y-2845238D01*
X14234761Y-3607142D02*
X14480476Y-3702380D01*
X14562380Y-3797619D01*
X14644285Y-3988095D01*
X14644285Y-4273809D01*
X14562380Y-4464285D01*
X14480476Y-4559523D01*
X14316666Y-4654761D01*
X13661428Y-4654761D01*
X13661428Y-2654761D01*
X14234761Y-2654761D01*
X14398571Y-2750000D01*
X14480476Y-2845238D01*
X14562380Y-3035714D01*
X14562380Y-3226190D01*
X14480476Y-3416666D01*
X14398571Y-3511904D01*
X14234761Y-3607142D01*
X13661428Y-3607142D01*
X16364285Y-4654761D02*
X15790952Y-3702380D01*
X15381428Y-4654761D02*
X15381428Y-2654761D01*
X16036666Y-2654761D01*
X16200476Y-2750000D01*
X16282380Y-2845238D01*
X16364285Y-3035714D01*
X16364285Y-3321428D01*
X16282380Y-3511904D01*
X16200476Y-3607142D01*
X16036666Y-3702380D01*
X15381428Y-3702380D01*
X17838571Y-3321428D02*
X17838571Y-4654761D01*
X17101428Y-3321428D02*
X17101428Y-4369047D01*
X17183333Y-4559523D01*
X17347142Y-4654761D01*
X17592857Y-4654761D01*
X17756666Y-4559523D01*
X17838571Y-4464285D01*
X18903333Y-4654761D02*
X18739523Y-4559523D01*
X18657619Y-4369047D01*
X18657619Y-2654761D01*
X20213809Y-4559523D02*
X20050000Y-4654761D01*
X19722380Y-4654761D01*
X19558571Y-4559523D01*
X19476666Y-4369047D01*
X19476666Y-3607142D01*
X19558571Y-3416666D01*
X19722380Y-3321428D01*
X20050000Y-3321428D01*
X20213809Y-3416666D01*
X20295714Y-3607142D01*
X20295714Y-3797619D01*
X19476666Y-3988095D01*
X21032857Y-4654761D02*
X21032857Y-3321428D01*
X21032857Y-3702380D02*
X21114761Y-3511904D01*
X21196666Y-3416666D01*
X21360476Y-3321428D01*
X21524285Y-3321428D01*
D15*
%TO.C,REF\u002A\u002A*%
X22500000Y-23500000D02*
X22500000Y-22500000D01*
X7500000Y-23500000D02*
X7500000Y-22500000D01*
X11500000Y-23500000D02*
X11500000Y-22500000D01*
X3500000Y-23500000D02*
X3500000Y-22500000D01*
X16500000Y-23500000D02*
X16500000Y-22500000D01*
X6500000Y-23500000D02*
X6500000Y-22500000D01*
X59500000Y-23500000D02*
X59500000Y-22500000D01*
X42500000Y-23500000D02*
X42500000Y-22500000D01*
X500000Y-20500000D02*
X500000Y-20500000D01*
X15500000Y-23500000D02*
X15500000Y-21500000D01*
X52500000Y-23500000D02*
X52500000Y-22500000D01*
X18500000Y-23500000D02*
X18500000Y-22500000D01*
X58500000Y-23500000D02*
X58500000Y-22500000D01*
X5500000Y-23500000D02*
X5500000Y-21500000D01*
X2500000Y-23500000D02*
X2500000Y-22500000D01*
X53500000Y-23500000D02*
X53500000Y-22500000D01*
X9500000Y-23500000D02*
X9500000Y-22500000D01*
X49500000Y-23500000D02*
X49500000Y-22500000D01*
X14500000Y-23500000D02*
X14500000Y-22500000D01*
X56500000Y-23500000D02*
X56500000Y-22500000D01*
X23500000Y-23500000D02*
X23500000Y-22500000D01*
X60500000Y-23500000D02*
X60500000Y-20500000D01*
X13500000Y-23500000D02*
X13500000Y-22500000D01*
X17500000Y-23500000D02*
X17500000Y-22500000D01*
X55500000Y-23500000D02*
X55500000Y-21500000D01*
X45500000Y-23500000D02*
X45500000Y-21500000D01*
X41500000Y-23500000D02*
X41500000Y-22500000D01*
X63500000Y-23500000D02*
X63500000Y-22500000D01*
X48500000Y-23500000D02*
X48500000Y-22500000D01*
X34500000Y-23500000D02*
X34500000Y-22500000D01*
X30500000Y-23500000D02*
X30500000Y-20500000D01*
X46500000Y-23500000D02*
X46500000Y-22500000D01*
X500000Y-23500000D02*
X500000Y-20500000D01*
X20500000Y-23500000D02*
X20500000Y-20500000D01*
X37500000Y-23500000D02*
X37500000Y-22500000D01*
X38500000Y-23500000D02*
X38500000Y-22500000D01*
X62500000Y-23500000D02*
X62500000Y-22500000D01*
X57500000Y-23500000D02*
X57500000Y-22500000D01*
X50500000Y-23500000D02*
X50500000Y-20500000D01*
X10500000Y-23500000D02*
X10500000Y-20500000D01*
X43500000Y-23500000D02*
X43500000Y-22500000D01*
X51500000Y-23500000D02*
X51500000Y-22500000D01*
X40500000Y-23500000D02*
X40500000Y-20500000D01*
X36500000Y-23500000D02*
X36500000Y-22500000D01*
X61500000Y-23500000D02*
X61500000Y-22500000D01*
X8500000Y-23500000D02*
X8500000Y-22500000D01*
X27500000Y-23500000D02*
X27500000Y-22500000D01*
X47500000Y-23500000D02*
X47500000Y-22500000D01*
X39500000Y-23500000D02*
X39500000Y-22500000D01*
X24500000Y-23500000D02*
X24500000Y-22500000D01*
X28500000Y-23500000D02*
X28500000Y-22500000D01*
X19500000Y-23500000D02*
X19500000Y-22500000D01*
X54500000Y-23500000D02*
X54500000Y-22500000D01*
X31500000Y-23500000D02*
X31500000Y-22500000D01*
X25500000Y-23500000D02*
X25500000Y-21500000D01*
X44500000Y-23500000D02*
X44500000Y-22500000D01*
X33500000Y-23500000D02*
X33500000Y-22500000D01*
X32500000Y-23500000D02*
X32500000Y-22500000D01*
X21500000Y-23500000D02*
X21500000Y-22500000D01*
X26500000Y-23500000D02*
X26500000Y-22500000D01*
X1500000Y-23500000D02*
X1500000Y-22500000D01*
X29500000Y-23500000D02*
X29500000Y-22500000D01*
X12500000Y-23500000D02*
X12500000Y-22500000D01*
X35500000Y-23500000D02*
X35500000Y-21500000D01*
X4500000Y-23500000D02*
X4500000Y-22500000D01*
X64500000Y-23500000D02*
X64500000Y-22500000D01*
X32750000Y0D02*
X32750000Y-1587500D01*
X10525000Y0D02*
X10525000Y-1587500D01*
D18*
X50212500Y0D02*
X50212500Y-793750D01*
X12112500Y0D02*
X12112500Y-793750D01*
X24812500Y0D02*
X24812500Y-793750D01*
D15*
X53387500Y0D02*
X53387500Y-793750D01*
X1000000Y0D02*
X1000000Y-3000000D01*
D18*
X8937500Y0D02*
X8937500Y-793750D01*
X59737500Y0D02*
X59737500Y-793750D01*
D15*
X2587500Y0D02*
X2587500Y-793750D01*
D18*
X56562500Y0D02*
X56562500Y-793750D01*
X18462500Y0D02*
X18462500Y-793750D01*
X31162500Y0D02*
X31162500Y-793750D01*
D15*
X13700000Y0D02*
X13700000Y-2381250D01*
D18*
X47037500Y0D02*
X47037500Y-793750D01*
X43862500Y0D02*
X43862500Y-793750D01*
X27987500Y0D02*
X27987500Y-793750D01*
X62912500Y0D02*
X62912500Y-793750D01*
X5762500Y0D02*
X5762500Y-793750D01*
D15*
X45450000Y0D02*
X45450000Y-1587500D01*
X58150000Y0D02*
X58150000Y-1587500D01*
X64500000Y0D02*
X64500000Y-2381250D01*
X23225000Y0D02*
X23225000Y-1587500D01*
X51800000Y0D02*
X51800000Y-3000000D01*
X42275000Y0D02*
X42275000Y-1587500D01*
X7350000Y0D02*
X7350000Y-1587500D01*
D18*
X37512500Y0D02*
X37512500Y-793750D01*
X21637500Y0D02*
X21637500Y-793750D01*
D15*
X54975000Y0D02*
X54975000Y-1587500D01*
X48625000Y0D02*
X48625000Y-1587500D01*
X39100000Y0D02*
X39100000Y-2381250D01*
X16875000Y0D02*
X16875000Y-1587500D01*
X29575000Y0D02*
X29575000Y-1587500D01*
X35925000Y0D02*
X35925000Y-1587500D01*
X20050000Y0D02*
X20050000Y-1587500D01*
D18*
X34337500Y0D02*
X34337500Y-793750D01*
D15*
X26400000Y0D02*
X26400000Y-3000000D01*
D18*
X40687500Y0D02*
X40687500Y-793750D01*
D15*
X61325000Y0D02*
X61325000Y-1587500D01*
X4175000Y0D02*
X4175000Y-1587500D01*
D18*
X15287500Y0D02*
X15287500Y-793750D01*
D19*
X2311054Y-7302552D02*
X2865630Y-6056839D01*
X4222436Y-8691300D02*
X5235824Y-7778809D01*
X593960Y-18143859D02*
X736484Y-19500043D01*
X5403749Y-10737382D02*
X6700652Y-10316031D01*
X4596708Y-15832875D02*
X5699901Y-16634381D01*
X1181312Y-18050826D02*
X1464823Y-19384663D01*
X5557691Y-13674467D02*
X6891528Y-13957977D01*
X1755773Y-17896910D02*
X2177188Y-19193788D01*
X3339708Y-7896446D02*
X4141232Y-6793260D01*
X5681839Y-12493154D02*
X7500028Y-12493154D01*
X593960Y-6842457D02*
X736484Y-5486293D01*
X4920621Y-15334090D02*
X6495224Y-16243182D01*
X4920621Y-9652283D02*
X6495224Y-8743191D01*
X1181312Y-6935527D02*
X1464823Y-5601684D01*
X3801919Y-8270718D02*
X4714345Y-7257395D01*
X2840935Y-17413783D02*
X3750027Y-18988359D01*
X5190623Y-10182165D02*
X6436366Y-9627524D01*
X5650717Y-13087050D02*
X7006882Y-13229639D01*
X5190623Y-14804190D02*
X6436366Y-15358817D01*
X3801919Y-16715585D02*
X4714345Y-17728959D01*
X5650717Y-11899259D02*
X7006882Y-11756735D01*
X4222436Y-16295047D02*
X5235824Y-17207500D01*
X1755773Y-7089405D02*
X2177188Y-5792572D01*
X2311054Y-17683784D02*
X2865630Y-18929527D01*
X3339708Y-17089863D02*
X4141232Y-18193069D01*
X5403749Y-14248953D02*
X6700652Y-14670344D01*
X4596708Y-9153511D02*
X5699901Y-8351923D01*
X2840935Y-7572591D02*
X3750027Y-5997957D01*
X5557691Y-11311842D02*
X6891528Y-11028333D01*
%TD*%
M02*
